<svg width="517" height="224" viewBox="0 0 517 224" fill="none" xmlns="http://www.w3.org/2000/svg">
<path d="M50.9405 183.287L47.2819 180.888L43.6233 178.489L39.9648 176.09L36.3062 173.691L32.6476 171.292L28.989 168.893L25.3305 166.494L21.6719 164.095L24.071 160.436L27.7295 162.835L31.3881 165.234L35.0467 167.633L37.4457 163.975L39.8448 160.316L42.2439 156.658L44.6429 152.999L48.3015 155.398L45.9024 159.057L43.5034 162.715L41.1043 166.374L38.7052 170.033L42.3638 172.432L46.0224 174.831L49.681 177.23L53.3395 179.629L50.9405 183.287ZM30.0086 143.403L32.4077 139.744L36.0663 142.143L33.6672 145.802L31.2682 149.461L28.8691 153.119L26.47 156.778L24.071 160.436L20.4124 158.037L22.8115 154.379L25.2105 150.72L27.6096 147.062L30.0086 143.403Z" fill="#FFF0F0"/>
<path d="M90.886 125.485L94.0495 122.463L97.0716 125.626L93.9081 128.649L90.7447 131.671L87.5812 134.693L84.4178 137.715L81.3957 134.551L84.5591 131.529L87.7226 128.507L90.886 125.485ZM81.3957 134.551L78.2322 137.574L75.2101 134.41L72.188 131.247L69.1659 128.083L66.1437 124.92L63.1216 121.756L60.0995 118.593L57.0774 115.429L54.0553 112.266L57.2187 109.244L60.2409 112.407L63.263 115.571L66.2851 118.734L69.3072 121.898L72.3293 125.061L75.3514 128.225L78.3736 131.388L81.3957 134.551Z" fill="#FFF0F0"/>
<path d="M136.988 91.2221L140.752 88.9927L142.982 92.757L139.218 94.9864L135.453 97.2159L131.689 99.4453L127.925 101.675L125.695 97.9105L129.459 95.681L133.224 93.4516L136.988 91.2221ZM140.752 88.9927L138.523 85.2283L142.287 82.9989L144.517 86.7632L140.752 88.9927ZM125.695 97.9105L121.931 100.14L119.701 96.3756L123.466 94.1461L125.695 97.9105ZM142.287 82.9989L140.058 79.2346L137.828 75.4702L135.599 71.7059L133.37 67.9416L131.14 64.1772L134.904 61.9478L137.134 65.7121L139.363 69.4764L141.593 73.2408L143.822 77.0051L146.052 80.7694L142.287 82.9989ZM119.701 96.3756L115.937 98.605L113.708 94.8407L111.478 91.0764L109.249 87.3121L107.019 83.5477L104.79 79.7834L108.554 77.554L110.784 81.3183L113.013 85.0826L115.242 88.8469L117.472 92.6113L119.701 96.3756ZM131.14 64.1772L127.376 66.4067L125.146 62.6424L128.911 60.4129L131.14 64.1772ZM108.554 77.554L106.325 73.7896L110.089 71.5602L112.318 75.3245L108.554 77.554ZM125.146 62.6424L121.382 64.8718L117.618 67.1013L113.853 69.3307L110.089 71.5602L107.86 67.7958L111.624 65.5664L115.388 63.3369L119.153 61.1075L122.917 58.878L125.146 62.6424Z" fill="#FFF0F0"/>
<path d="M190.044 69.166L194.215 67.8445L195.537 72.0151L191.366 73.3366L187.195 74.6582L185.874 70.4876L190.044 69.166ZM177.533 73.1307L181.703 71.8091L183.025 75.9797L178.854 77.3013L174.683 78.6228L170.513 79.9444L169.191 75.7738L173.362 74.4522L177.533 73.1307ZM194.215 67.8445L192.893 63.6738L191.572 59.5032L190.25 55.3326L188.929 51.162L187.607 46.9913L186.286 42.8207L184.964 38.6501L183.643 34.4794L187.813 33.1579L189.135 37.3285L190.456 41.4992L191.778 45.6698L193.099 49.8404L194.421 54.011L195.743 58.1817L197.064 62.3523L198.386 66.5229L194.215 67.8445ZM185.874 70.4876L181.703 71.8091L180.382 67.6385L179.06 63.4679L177.739 59.2972L176.417 55.1266L180.588 53.8051L181.909 57.9757L183.231 62.1463L184.552 66.3169L185.874 70.4876ZM169.191 75.7738L165.021 77.0953L163.699 72.9247L162.378 68.7541L161.056 64.5834L159.734 60.4128L158.413 56.2422L157.091 52.0715L155.77 47.9009L154.448 43.7303L158.619 42.4087L159.94 46.5794L161.262 50.75L162.584 54.9206L163.905 59.0913L165.227 63.2619L166.548 67.4325L167.87 71.6031L169.191 75.7738Z" fill="#FFF0F0"/>
<path d="M238.179 61.3311L242.541 60.9858L242.886 65.3471L238.525 65.6925L234.163 66.0378L229.802 66.3832L225.441 66.7285L221.079 67.0738L220.734 62.7125L225.095 62.3671L229.457 62.0218L233.818 61.6765L238.179 61.3311ZM220.734 62.7125L216.373 63.0578L216.027 58.6965L215.682 54.3351L215.337 49.9738L214.991 45.6124L214.646 41.2511L214.301 36.8897L213.955 32.5284L218.317 32.183L218.662 36.5444L219.007 40.9057L219.353 45.2671L223.714 44.9217L228.075 44.5764L232.437 44.2311L236.798 43.8857L237.143 48.2471L232.782 48.5924L228.421 48.9378L224.059 49.2831L219.698 49.6284L220.043 53.9898L220.389 58.3511L220.734 62.7125ZM235.417 26.4403L239.778 26.095L240.123 30.4563L235.762 30.8017L231.401 31.147L227.039 31.4924L222.678 31.8377L218.317 32.183L217.971 27.8217L222.333 27.4763L226.694 27.131L231.055 26.7857L235.417 26.4403Z" fill="#FFF0F0"/>
<path d="M268.92 65.3091L269.568 60.9825L270.217 56.6559L270.866 52.3292L271.515 48.0026L272.163 43.676L272.812 39.3493L273.461 35.0227L274.109 30.696L278.436 31.3448L277.787 35.6714L277.139 39.998L276.49 44.3247L275.841 48.6513L275.192 52.978L274.544 57.3046L273.895 61.6312L273.246 65.9579L268.92 65.3091ZM299.206 69.8502L294.879 69.2015L295.528 64.8749L296.177 60.5482L296.826 56.2216L297.474 51.895L301.801 52.5437L301.152 56.8703L300.504 61.197L299.855 65.5236L304.181 66.1723L303.533 70.499L299.206 69.8502ZM297.474 51.895L293.148 51.2462L288.821 50.5975L284.494 49.9488L280.168 49.3L280.817 44.9734L285.143 45.6221L289.47 46.2709L293.796 46.9196L298.123 47.5683L297.474 51.895ZM298.123 47.5683L298.772 43.2417L299.421 38.915L300.069 34.5884L304.396 35.2371L303.747 39.5638L303.098 43.8904L302.45 48.217L298.123 47.5683ZM300.069 34.5884L295.743 33.9397L291.416 33.291L287.089 32.6422L282.763 31.9935L278.436 31.3448L279.085 27.0181L283.411 27.6669L287.738 28.3156L292.065 28.9643L296.391 29.613L300.718 30.2618L300.069 34.5884Z" fill="#FFF0F0"/>
<path d="M355.923 56.2225L357.533 52.1542L361.601 53.7634L359.992 57.8317L355.923 56.2225ZM342.199 79.0229L346.268 80.6321L344.658 84.7004L340.59 83.0912L336.522 81.4819L332.454 79.8727L328.385 78.2634L324.317 76.6541L325.926 72.5859L329.995 74.1951L334.063 75.8044L338.131 77.4136L342.199 79.0229ZM346.268 80.6321L347.877 76.5639L349.486 72.4956L351.096 68.4273L352.705 64.359L356.773 65.9683L355.164 70.0366L353.555 74.1048L351.945 78.1731L350.336 82.2414L346.268 80.6321ZM325.926 72.5859L321.858 70.9766L323.467 66.9083L325.077 62.84L329.145 64.4493L327.536 68.5176L325.926 72.5859ZM352.705 64.359L348.636 62.7498L344.568 61.1405L340.5 59.5312L336.432 57.922L332.363 56.3127L333.973 52.2444L338.041 53.8537L342.109 55.463L346.177 57.0722L350.246 58.6815L354.314 60.2907L352.705 64.359ZM333.973 52.2444L329.904 50.6352L331.514 46.5669L333.123 42.4986L337.191 44.1079L335.582 48.1762L333.973 52.2444ZM357.533 52.1542L353.464 50.5449L349.396 48.9357L345.328 47.3264L341.259 45.7171L337.191 44.1079L338.8 40.0396L342.869 41.6489L346.937 43.2581L351.005 44.8674L355.074 46.4766L359.142 48.0859L357.533 52.1542Z" fill="#FFF0F0"/>
<path d="M389.65 111.043L392.137 107.443L394.623 103.844L397.11 100.244L399.596 96.6443L402.083 93.0446L398.483 90.558L394.884 88.0714L391.284 85.5848L387.684 83.0982L390.171 79.4985L393.771 81.9852L397.37 84.4718L400.97 86.9584L404.57 89.445L407.056 85.8453L409.543 82.2457L412.029 78.6461L415.629 81.1327L413.142 84.7323L410.656 88.3319L408.169 91.9316L405.683 95.5312L403.196 99.1309L400.709 102.731L398.223 106.33L395.736 109.93L393.25 113.529L389.65 111.043ZM368.052 96.1232L370.539 92.5235L373.025 88.9239L375.512 85.3243L377.999 81.7246L380.485 78.125L382.972 74.5253L385.458 70.9257L387.945 67.3261L390.432 63.7264L394.031 66.213L391.545 69.8127L389.058 73.4123L386.571 77.0119L384.085 80.6116L381.598 84.2112L379.112 87.8109L376.625 91.4105L374.138 95.0101L371.652 98.6098L368.052 96.1232Z" fill="#FFF0F0"/>
<path d="M427.819 140.687L430.764 143.922L427.528 146.867L424.584 143.632L421.639 140.396L418.694 137.161L415.749 133.925L418.984 130.98L421.929 134.216L424.874 137.451L427.819 140.687ZM430.764 143.922L433.999 140.977L436.944 144.213L433.709 147.158L430.764 143.922ZM418.984 130.98L416.039 127.745L419.275 124.8L422.22 128.036L418.984 130.98ZM436.944 144.213L440.18 141.268L443.415 138.323L446.651 135.378L449.886 132.433L453.121 129.488L456.066 132.723L452.831 135.668L449.595 138.613L446.36 141.558L443.125 144.503L439.889 147.448L436.944 144.213ZM419.275 124.8L416.33 121.565L419.565 118.62L422.801 115.675L426.036 112.73L429.271 109.785L432.507 106.84L435.452 110.075L432.216 113.02L428.981 115.965L425.746 118.91L422.51 121.855L419.275 124.8ZM453.121 129.488L450.176 126.253L453.412 123.308L456.357 126.543L453.121 129.488ZM435.452 110.075L438.687 107.13L441.632 110.366L438.397 113.311L435.452 110.075ZM453.412 123.308L450.467 120.072L447.522 116.837L444.577 113.601L441.632 110.366L444.868 107.421L447.813 110.656L450.757 113.892L453.702 117.127L456.647 120.363L453.412 123.308Z" fill="#FFF0F0"/>
<path d="M443.508 167.419L447.325 165.281L451.142 163.143L454.959 161.005L458.776 158.867L462.593 156.729L466.41 154.591L470.227 152.453L474.044 150.315L476.182 154.132L472.365 156.27L468.548 158.408L464.731 160.546L466.869 164.363L469.007 168.18L471.145 171.997L473.283 175.814L469.466 177.952L467.328 174.135L465.19 170.318L463.052 166.501L460.914 162.684L457.097 164.822L453.28 166.96L449.463 169.098L445.646 171.236L443.508 167.419ZM473.283 175.814L477.1 173.676L480.917 171.538L484.734 169.4L486.872 173.217L483.055 175.355L479.238 177.493L475.421 179.631L473.283 175.814ZM484.734 169.4L482.596 165.583L480.458 161.766L478.32 157.949L476.182 154.132L479.999 151.994L482.137 155.811L484.275 159.628L486.413 163.445L488.551 167.262L484.734 169.4Z" fill="#FFF0F0"/>
</svg>
