<svg width="265" height="155" viewBox="0 0 265 155" fill="none" xmlns="http://www.w3.org/2000/svg">
<g filter="url(#filter0_d_32_65)">
<path fill-rule="evenodd" clip-rule="evenodd" d="M53.359 58.0025C61.0299 49.7025 64.047 40.4223 76.6915 34.4979C92.06 27.297 108.727 20.3303 131.386 21.4436C160.098 22.8544 191.09 28.3191 213.24 41.207C238.926 56.1527 262.055 76.6963 255.461 93.6385C249.06 110.085 211.652 111.952 183.585 117.401C161.674 121.655 139.127 122.753 113.806 121.14C78.1542 118.867 28.4456 125.329 10.2797 106.355C-8.78809 86.4389 38.0134 74.6063 53.359 58.0025Z" stroke="#28582D" stroke-width="3" stroke-linecap="round" stroke-dasharray="18 12" shape-rendering="crispEdges"/>
</g>
<path d="M76.5 87V84.5V82V79.5V77V74.5V72V69.5V67H79V69.5V72V74.5H81.5H84H86.5H89V77H86.5H84H81.5H79V79.5V82V84.5V87H76.5ZM89 74.5V72V69.5V67H91.5V69.5V72V74.5H89ZM89 67H86.5H84H81.5H79V64.5H81.5H84H86.5H89V67ZM96.5 87V84.5V82V79.5V77V74.5V72H99V74.5H101.5V77H99V79.5V82V84.5V87H96.5ZM104 72H106.5V74.5H104H101.5V72H104ZM124 87V84.5H126.5V87H124ZM119 84.5H121.5V87H119H116.5H114V84.5H116.5H119ZM124 84.5H121.5V82V79.5V77V74.5H124V77V79.5V82V84.5ZM114 84.5H111.5V82V79.5V77V74.5H114V77V79.5V82V84.5ZM121.5 74.5H119H116.5H114V72H116.5H119H121.5V74.5ZM141.5 77V74.5H144V77H141.5ZM139 84.5H141.5V87H139H136.5H134V84.5H136.5H139ZM141.5 84.5V82H144V84.5H141.5ZM134 84.5H131.5V82V79.5V77V74.5H134V77V79.5V82V84.5ZM141.5 74.5H139H136.5H134V72H136.5H139H141.5V74.5ZM154 84.5H156.5V87H154H151.5V84.5H154ZM151.5 84.5H149V82V79.5V77V74.5H146.5V72H149V69.5V67H151.5V69.5V72H154H156.5V74.5H154H151.5V77V79.5V82V84.5ZM161.5 87V84.5V82V79.5V77V74.5V72H164V74.5V77V79.5V82V84.5V87H161.5ZM161.5 69.5V67H164V69.5H161.5ZM164 67V64.5H166.5V67H164ZM161.5 67H159V64.5H161.5V67ZM181.5 77V74.5H184V77H181.5ZM179 84.5H181.5V87H179H176.5H174V84.5H176.5H179ZM181.5 84.5V82H184V84.5H181.5ZM174 84.5H171.5V82V79.5V77V74.5H174V77V79.5V82V84.5ZM181.5 74.5H179H176.5H174V72H176.5H179H181.5V74.5ZM196.5 84.5H199V87H196.5H194H191.5V84.5H194H196.5ZM199 84.5V82H201.5V84.5H199ZM191.5 84.5H189V82V79.5V77V74.5H191.5V77H194H196.5H199V79.5H196.5H194H191.5V82V84.5ZM199 77V74.5H201.5V77H199ZM199 74.5H196.5H194H191.5V72H194H196.5H199V74.5Z" fill="#FFF0F0"/>
<defs>
<filter id="filter0_d_32_65" x="0.283699" y="19.8258" width="261.815" height="111.507" filterUnits="userSpaceOnUse" color-interpolation-filters="sRGB">
<feFlood flood-opacity="0" result="BackgroundImageFix"/>
<feColorMatrix in="SourceAlpha" type="matrix" values="0 0 0 0 0 0 0 0 0 0 0 0 0 0 0 0 0 0 127 0" result="hardAlpha"/>
<feOffset dy="4"/>
<feGaussianBlur stdDeviation="2"/>
<feComposite in2="hardAlpha" operator="out"/>
<feColorMatrix type="matrix" values="0 0 0 0 0 0 0 0 0 0 0 0 0 0 0 0 0 0 0.25 0"/>
<feBlend mode="normal" in2="BackgroundImageFix" result="effect1_dropShadow_32_65"/>
<feBlend mode="normal" in="SourceGraphic" in2="effect1_dropShadow_32_65" result="shape"/>
</filter>
</defs>
</svg>
