<svg width="400" height="115" viewBox="0 0 400 115" fill="none" xmlns="http://www.w3.org/2000/svg">
<path d="M171.053 83.1145C168.759 83.0872 166.24 83.8033 165.67 85.9063C165.622 86.1433 165.606 86.3796 165.614 86.6149C159.374 84.5219 151.998 84.8842 146.011 88.0175C143.781 89.1843 141.9 90.7254 140.487 92.5166C139.884 92.7104 139.281 92.9061 138.681 93.1053C138.63 92.6526 138.504 92.2131 138.296 91.7987C137.794 90.8006 136.896 89.949 135.929 89.3065C134.953 88.6578 133.821 88.2121 132.647 87.9545C130.214 87.4186 127.583 87.6873 125.282 88.5535C123.101 89.3734 121.1 90.7937 120.034 92.7366C119.478 93.7496 119.213 94.8685 119.263 95.9973C119.312 97.1236 119.66 98.2324 120.215 99.2384C119.95 99.3143 119.686 99.3897 119.42 99.4646C116.912 100.171 114.372 100.782 111.797 101.249C109.21 101.721 106.594 102.062 103.965 102.269C103.912 102.273 103.859 102.277 103.807 102.281C103.777 102.267 103.748 102.252 103.719 102.238C103.66 102.21 103.602 102.181 103.544 102.151C103.429 102.089 103.316 102.026 103.205 101.961C102.976 101.825 102.754 101.679 102.544 101.52C102.137 101.211 101.77 100.854 101.484 100.448C100.966 99.7129 100.742 98.8286 100.777 97.9603C100.816 96.9543 101.211 95.9506 101.918 95.1696C102.649 94.3621 103.741 93.7937 104.911 93.7897C107.569 93.7777 108.645 96.3693 109.357 98.2691C109.69 99.1581 110.01 100.05 110.337 100.941C110.334 100.784 110.331 100.628 110.329 100.471C110.319 99.9386 110.31 99.407 110.299 98.8744C110.284 98.0483 110.377 97.2293 110.616 96.4317C110.922 95.42 111.442 94.4334 112.208 93.6399C112.589 93.2479 113.032 92.907 113.53 92.6412C114.063 92.3566 114.647 92.1856 115.255 92.0855C114.822 92.1061 114.391 92.1792 113.981 92.3034C111.692 92.9922 110.32 95.1025 109.792 97.1227C109.671 96.7841 109.544 96.4477 109.398 96.1177C108.958 95.1304 108.332 94.1573 107.368 93.5181C106.397 92.8751 105.157 92.6403 103.978 92.8322C102.097 93.1382 100.66 94.4294 99.9475 95.9866C98.5122 96.2297 97.5662 96.2655 97.5596 96.2665C96.5567 96.3326 95.5773 96.3662 94.5781 96.3914C92.0297 96.37 89.2801 96.3436 86.3798 96.3108C87.0535 96.2615 87.7682 96.1995 88.543 96.126C93.3997 96.448 95.8822 94.4048 96.4672 90.4711C96.4366 90.4699 96.4091 90.4722 96.3786 90.4711C96.3798 90.4591 96.3821 90.4501 96.3837 90.4381C91.5551 90.1483 90.7266 93.8618 88.2009 95.8812C87.9133 95.9052 87.6367 95.9292 87.3682 95.9514C85.6841 94.4802 84.8732 92.2234 82.9511 90.9648C82.0636 90.3565 80.9371 89.9611 79.3615 89.9691C79.5608 92.1394 80.3645 93.7702 81.8494 94.7915C82.8845 95.5332 84.27 95.9633 86.0222 96.0608C84.4338 96.184 83.1626 96.2583 82.0957 96.2623C81.8597 96.2583 81.6251 96.2562 81.3866 96.2522C79.8379 96.2047 78.7276 95.9695 77.5971 95.4725C79.653 94.5426 79.363 93.7377 78.3402 92.9533C77.5964 92.3538 76.4026 91.7681 75.4669 91.152C75.396 91.1059 75.3305 91.0551 75.267 91.0043C74.3231 90.1703 74.3415 88.9076 74.3415 88.9076C74.3172 88.9412 74.2946 88.975 74.2694 89.0078C74.2608 88.8985 74.2632 88.8301 74.2632 88.8301C72.594 91.0686 71.8523 93.7271 73.3882 94.989C74.0496 95.5897 75.1786 95.9075 76.9077 95.7636C77.5001 95.9451 78.1327 96.1009 78.8617 96.2212C76.954 96.1964 75.0045 96.1692 73.0275 96.1416C72.8341 95.323 72.0988 94.7187 71.225 94.7287C70.3859 94.7367 69.6929 95.3131 69.4833 96.0879C69.2127 96.0839 68.9404 96.0799 68.6681 96.0759C68.5035 95.8424 68.2353 95.6864 67.9292 95.6824C67.626 95.6784 67.3582 95.8251 67.1882 96.0501C66.0322 96.0321 64.8732 96.0141 63.709 95.9934C55.9808 95.8586 41.6754 95.6223 27.4395 95.1154C26.3445 95.075 25.2493 95.0351 24.1581 94.9925C24.1493 94.9945 24.1409 94.9965 24.1313 94.9985C18.992 95.7688 13.708 96.1015 8.41688 96.1429C8.20648 95.113 7.29586 94.3365 6.20421 94.3365C4.95785 94.3365 3.94722 95.3508 3.94722 96.5994C3.94722 97.8498 4.95785 98.8624 6.20421 98.8624C7.28802 98.8624 8.19101 98.0964 8.40967 97.0776C13.7115 97.1186 19.0084 97.454 24.1581 98.2293C25.2493 98.1863 26.3445 98.1463 27.4395 98.1074C41.6754 97.5988 55.9808 97.3631 63.709 97.2284C64.8732 97.208 66.0322 97.1896 67.1882 97.1696C67.3582 97.3957 67.626 97.5413 67.9292 97.5373C68.2353 97.5353 68.5035 97.3804 68.6681 97.1469C68.9404 97.1429 69.2127 97.1409 69.4833 97.1349C69.6921 97.9102 70.3859 98.4852 71.225 98.4952C72.0988 98.5052 72.8349 97.8994 73.0275 97.0812C75.0045 97.0526 76.954 97.0274 78.8617 97.0026C78.1327 97.1218 77.5001 97.2781 76.9077 97.4612C75.1778 97.3173 74.049 97.6335 73.3872 98.2359C71.8529 99.4974 72.594 102.155 74.2632 104.393C74.2632 104.393 74.2608 104.325 74.2694 104.215C74.2945 104.248 74.3172 104.283 74.3415 104.316C74.3415 104.316 74.3234 103.055 75.2649 102.222C75.328 102.169 75.3951 102.12 75.4669 102.073C76.4051 101.454 77.6005 100.869 78.3443 100.267C79.3629 99.4851 79.6497 98.6798 77.5971 97.7524C78.7284 97.2537 79.8399 97.0187 81.3907 96.9716C81.6308 96.9676 81.8675 96.9656 82.106 96.9636C83.1696 96.9676 84.4394 97.0401 86.0232 97.1628C84.2723 97.2626 82.8884 97.6906 81.8524 98.4312C80.366 99.4524 79.5608 101.083 79.3615 103.255C80.9371 103.263 82.0636 102.867 82.951 102.26C84.8732 101.001 85.6841 98.7426 87.3681 97.2723C87.6367 97.2963 87.9133 97.3195 88.2009 97.3447C90.7266 99.3632 91.5551 103.076 96.3837 102.788C96.3821 102.776 96.3795 102.765 96.3785 102.753C96.4091 102.751 96.4366 102.754 96.4672 102.753C95.8822 98.8189 93.3997 96.7765 88.543 97.0998C87.7682 97.0245 87.0535 96.9633 86.3798 96.9129C89.2772 96.8816 92.0233 96.856 94.5668 96.8324C95.5701 96.858 96.5533 96.89 97.5596 96.9573C97.5658 96.9582 98.3427 96.9895 99.5548 97.1753C99.5478 97.21 99.5346 97.2438 99.528 97.2786C99.3638 98.1965 99.4424 99.1335 99.7568 100.019C100.858 102.495 103.746 103.651 104.186 103.845C104.328 103.898 104.472 103.949 104.616 103.998C105.226 104.204 105.85 104.372 106.484 104.507C107.766 104.777 109.079 104.919 110.392 104.983C111.719 105.046 113.052 105.037 114.377 104.95C116.619 104.802 118.9 104.476 121 103.725C121.582 103.517 122.149 103.274 122.696 103C122.976 102.858 123.25 102.708 123.52 102.55C123.577 102.518 123.668 102.594 123.727 102.623C123.792 102.655 123.858 102.684 123.925 102.716C124.057 102.777 124.19 102.835 124.326 102.89C125.48 103.357 126.733 103.589 127.992 103.637C130.599 103.737 133.181 103.164 135.618 102.372C136.312 102.145 136.999 101.899 137.675 101.636C138.013 105.132 139.833 108.581 142.954 110.942C146.814 113.862 152.502 114.846 157.439 113.396C160.857 112.392 163.701 110.324 165.064 107.617C165.574 107.52 166.089 107.358 166.598 107.114C169.556 105.709 171.234 103.527 172.574 102.5C175.317 100.124 179.901 96.3782 185.458 95.8523C186.975 95.6878 189.826 95.4711 193.071 96.755C193.796 97.0262 194.539 97.376 195.286 97.7961H186.979C186.623 97.7761 186.242 97.7761 185.842 97.7961H183.104C182.778 97.7961 182.496 98.0002 182.362 98.297C180.85 98.6299 179.532 99.084 178.671 99.648C177.349 100.519 177.397 101.652 179.004 102.57C180.124 103.202 182.033 103.721 184.537 103.729C184.48 103.831 184.42 103.932 184.352 104.033H200.067H215.783C215.714 103.931 215.654 103.83 215.598 103.728C218.104 103.722 220.016 103.203 221.137 102.57C222.743 101.652 222.791 100.519 221.469 99.648C220.607 99.0836 219.287 98.6294 217.773 98.2949C217.637 97.9993 217.356 97.7961 217.033 97.7961H214.306C213.901 97.7761 213.515 97.7761 213.156 97.7961H204.856C205.602 97.376 206.347 97.0262 207.071 96.755C210.316 95.4711 213.166 95.6878 214.682 95.8523C220.239 96.3782 224.825 100.124 227.567 102.5C228.907 103.527 230.585 105.709 233.543 107.114C234.05 107.358 234.566 107.52 235.075 107.617C236.436 110.324 239.283 112.392 242.699 113.396C247.634 114.846 253.323 113.862 257.182 110.942C260.289 108.592 262.105 105.164 262.455 101.685C263.09 101.93 263.734 102.159 264.383 102.372C266.821 103.164 269.402 103.736 272.009 103.637C273.268 103.589 274.523 103.357 275.676 102.89C275.812 102.835 275.944 102.777 276.077 102.716C276.144 102.684 276.209 102.655 276.276 102.623C276.332 102.594 276.425 102.518 276.482 102.55C276.75 102.708 277.025 102.858 277.306 103C277.854 103.274 278.42 103.517 279.001 103.725C281.102 104.476 283.383 104.802 285.625 104.95C286.95 105.037 288.282 105.046 289.609 104.983C290.923 104.919 292.235 104.777 293.517 104.507C294.15 104.372 294.776 104.204 295.386 103.998C295.529 103.949 295.673 103.898 295.817 103.845C296.256 103.651 299.144 102.495 300.246 100.019C300.559 99.1335 300.639 98.1965 300.475 97.2786C300.469 97.2442 300.455 97.2102 300.449 97.1763C301.656 96.991 302.438 96.9576 302.444 96.9573C303.45 96.8897 304.432 96.858 305.435 96.8324C307.98 96.856 310.726 96.8815 313.622 96.9129C312.95 96.9633 312.234 97.0247 311.458 97.0998C306.602 96.7765 304.12 98.8188 303.534 102.753C303.564 102.754 303.593 102.751 303.625 102.753C303.621 102.765 303.621 102.776 303.617 102.788C308.446 103.076 309.275 99.3622 311.801 97.3436C312.089 97.3184 312.365 97.2962 312.633 97.2722C314.317 98.7426 315.13 101 317.051 102.26C317.938 102.867 319.065 103.263 320.639 103.254C320.442 101.083 319.636 99.4524 318.15 98.4311C317.114 97.6906 315.728 97.2623 313.978 97.1628C315.562 97.04 316.831 96.9675 317.895 96.9635C318.134 96.9655 318.37 96.9695 318.61 96.9715C320.161 97.0186 321.272 97.2536 322.403 97.7523C320.351 98.6797 320.637 99.484 321.657 100.266C322.401 100.868 323.596 101.454 324.535 102.073C324.606 102.12 324.673 102.169 324.738 102.221C325.678 103.055 325.66 104.316 325.66 104.316C325.684 104.282 325.708 104.248 325.732 104.215C325.74 104.325 325.74 104.393 325.74 104.393C327.408 102.154 328.15 99.4983 326.616 98.2368C325.956 97.6345 324.825 97.3172 323.096 97.4611C322.503 97.2779 321.871 97.1217 321.142 97.0026C323.05 97.0273 324.999 97.0525 326.976 97.0811C327.169 97.8994 327.904 98.5061 328.777 98.4961C329.617 98.4861 330.312 97.9101 330.521 97.1348C330.792 97.1388 331.065 97.1428 331.337 97.1468C331.501 97.3805 331.769 97.5352 332.075 97.5372C332.378 97.5412 332.646 97.3957 332.816 97.1696C333.971 97.1895 335.13 97.2083 336.294 97.2283C344.023 97.363 358.329 97.5987 372.565 98.1073C373.661 98.146 374.754 98.1862 375.845 98.2292C380.995 97.4539 386.291 97.1185 391.594 97.0775C391.811 98.096 392.715 98.8618 393.799 98.8623C395.046 98.8618 396.056 97.8494 396.056 96.5993C396.056 95.3507 395.046 94.3364 393.798 94.3364C392.706 94.3364 391.798 95.1129 391.586 96.1428C386.295 96.1015 381.01 95.7687 375.871 94.9984C375.863 94.9944 375.853 94.9944 375.845 94.9924C374.754 95.035 373.66 95.0748 372.564 95.1154C358.328 95.6223 344.022 95.8586 336.293 95.9933C335.129 96.0139 333.97 96.0321 332.815 96.05C332.645 95.8251 332.377 95.6783 332.074 95.6823C331.768 95.6863 331.5 95.8422 331.336 96.0759C331.064 96.0798 330.791 96.0838 330.519 96.0878C330.31 95.313 329.617 94.7366 328.777 94.7286C327.904 94.7186 327.168 95.3229 326.975 96.1415C324.998 96.1691 323.05 96.1963 321.142 96.2211C321.871 96.1008 322.503 95.945 323.096 95.7635C324.825 95.9074 325.953 95.5896 326.613 94.9889C328.149 93.727 327.409 91.0686 325.74 88.83C325.74 88.83 325.74 88.8986 325.732 89.0077C325.708 88.9751 325.685 88.9412 325.661 88.9076C325.661 88.9076 325.681 90.1703 324.737 91.0043C324.672 91.055 324.607 91.1056 324.536 91.152C323.601 91.768 322.405 92.3537 321.661 92.9533C320.639 93.7376 320.348 94.5425 322.403 95.4724C321.274 95.9694 320.164 96.2046 318.617 96.2522C318.377 96.2562 318.144 96.2582 317.907 96.2622C316.839 96.2582 315.567 96.184 313.98 96.0608C315.732 95.9632 317.117 95.5332 318.152 94.7914C319.637 93.7701 320.442 92.1393 320.639 89.969C319.065 89.961 317.938 90.3565 317.051 90.9647C315.13 92.2233 314.318 94.4801 312.634 95.9513C312.366 95.9289 312.09 95.9051 311.802 95.8811C309.276 93.8617 308.446 90.1482 303.617 90.438C303.621 90.45 303.621 90.459 303.625 90.471C303.593 90.4722 303.566 90.4698 303.535 90.471C304.121 94.4048 306.603 96.448 311.459 96.1259C312.235 96.1994 312.95 96.2616 313.622 96.3107C310.723 96.3433 307.973 96.3699 305.425 96.3913C304.426 96.3659 303.447 96.3325 302.444 96.2664C302.438 96.2655 301.491 96.2286 300.056 95.9855C299.343 94.4283 297.903 93.1381 296.022 92.8322C294.844 92.6403 293.605 92.8751 292.634 93.518C291.67 94.1572 291.044 95.1303 290.605 96.1176C290.459 96.4476 290.33 96.784 290.209 97.1226C289.683 95.1024 288.31 92.9922 286.021 92.3033C285.611 92.1794 285.18 92.1062 284.747 92.0854C285.355 92.1855 285.941 92.3566 286.471 92.6411C286.969 92.9069 287.414 93.2479 287.794 93.6399C288.559 94.4333 289.08 95.4199 289.386 96.4316C289.625 97.2292 289.717 98.0482 289.703 98.8743C289.691 99.4069 289.683 99.9386 289.673 100.471C289.671 100.628 289.667 100.784 289.665 100.941C289.993 100.05 290.312 99.158 290.647 98.2691C291.356 96.3692 292.432 93.7776 295.089 93.7896C296.26 93.7936 297.354 94.362 298.082 95.1695C298.791 95.9505 299.184 96.9543 299.222 97.9602C299.258 98.8285 299.033 99.7129 298.518 100.448C298.23 100.854 297.864 101.211 297.456 101.519C297.247 101.679 297.028 101.825 296.798 101.96C296.686 102.026 296.573 102.089 296.458 102.151C296.4 102.181 296.341 102.209 296.283 102.238C296.255 102.252 296.224 102.267 296.195 102.281C296.141 102.277 296.09 102.273 296.038 102.269C293.408 102.062 290.793 101.721 288.204 101.249C285.628 100.782 283.089 100.171 280.582 99.4645C280.315 99.3895 280.051 99.3144 279.786 99.2383C280.34 98.2323 280.689 97.1235 280.74 95.9972C280.788 94.8685 280.523 93.7495 279.967 92.7365C278.902 90.7936 276.9 89.3734 274.72 88.5535C272.42 87.6872 269.787 87.4185 267.354 87.9544C266.179 88.212 265.05 88.6577 264.073 89.3064C263.105 89.949 262.208 90.8006 261.708 91.7987C261.5 92.213 261.371 92.6525 261.32 93.1052C260.78 92.9258 260.237 92.7492 259.696 92.5743C258.279 90.758 256.38 89.1975 254.125 88.0174C248.14 84.8841 240.764 84.5218 234.526 86.6148C234.534 86.3795 234.52 86.1432 234.469 85.9063C233.768 83.3181 230.113 82.8293 227.562 83.2436C225.955 83.5578 224.531 84.3835 223.746 85.5871C222.378 87.4523 225.112 89.3795 227.808 88.3934C229.355 87.8075 229.961 86.5119 228.786 85.9827C228.656 85.9091 228.49 85.8528 228.309 85.8268C227.712 85.7432 227.075 85.9801 226.832 86.3866C226.588 86.793 226.861 87.2331 227.495 87.343C227.619 87.3646 227.747 87.3726 227.874 87.3648C227.667 88.0471 226.222 88.2812 225.388 88.0909C223.032 87.5298 223.541 85.3574 225.387 84.289C227.731 82.8431 230.682 83.6638 232.223 85.0626C232.718 85.615 233.071 86.3065 232.97 87.1975C230.146 88.3709 227.623 90.0788 225.654 92.2863C225.518 92.4334 225.369 92.602 225.225 92.7749C227.295 90.6463 229.913 88.992 232.81 87.8761C232.79 87.9316 232.771 87.986 232.751 88.0424C232.216 89.3278 230.75 90.9853 227.379 92.3907C223.446 93.9523 219.269 94.474 214.421 94.3789C210.041 94.3038 205.919 93.9347 203.623 95.1205C202.489 95.6993 202.118 96.6732 202.528 97.7945H200.23H200.088H200.067H200.047H199.905H197.608C198.019 96.6741 197.651 95.6989 196.518 95.1205C194.223 93.9347 190.099 94.3038 185.719 94.3789C180.87 94.474 176.693 93.9523 172.762 92.3907C169.39 90.9853 167.924 89.3278 167.39 88.0424C167.367 87.986 167.35 87.9314 167.33 87.8761C170.227 88.992 172.845 90.6463 174.916 92.7749C174.773 92.602 174.624 92.4334 174.488 92.2863C172.517 90.0788 169.994 88.3709 167.17 87.1975C167.067 86.3065 167.422 85.615 167.918 85.0626C169.458 83.6638 172.41 82.8431 174.754 84.289C176.6 85.3574 177.109 87.5298 174.754 88.0909C173.919 88.2812 172.474 88.0471 172.266 87.3648C172.394 87.3728 172.521 87.3645 172.646 87.343C173.28 87.2331 173.552 86.793 173.31 86.3866C173.066 85.9802 172.429 85.7432 171.831 85.8268C171.649 85.8528 171.484 85.9091 171.355 85.9827C170.179 86.5119 170.785 87.8075 172.333 88.3934C175.03 89.3795 177.764 87.4523 176.395 85.5871C175.611 84.3835 174.185 83.5578 172.579 83.2436C172.1 83.1658 171.582 83.1209 171.053 83.1145ZM158.66 86.2152C161.069 86.2515 163.46 86.6297 165.72 87.3224C166.169 89.0238 167.967 90.6134 170.17 91.6955C174.109 93.6475 178.475 94.4547 183.524 94.5668C185.093 94.5938 186.538 94.5446 187.998 94.5628C190.264 94.5902 192.186 94.7735 193.735 95.3147C195.052 95.7695 195.815 96.4888 195.728 97.5808C194.378 96.6831 192.912 95.9758 191.233 95.418C186.686 94.1028 180.503 93.9214 173.785 99.6C172.153 100.946 169.989 104.335 167.699 105.944C166.977 106.455 166.148 106.854 165.308 107.094C165.602 106.395 165.799 105.659 165.884 104.89C166.166 102.328 165.146 99.6852 163.128 97.8101C163.786 97.1858 164.536 96.6026 165.364 96.1214C168.126 94.4117 171.757 93.8758 174.168 95.0637C174.424 95.1834 174.5 95.0973 174.24 94.9832C170.122 93.1023 165.04 93.6822 162.297 95.9902C162.037 96.2044 161.798 96.423 161.573 96.645C160.605 96.0657 159.494 95.6336 158.255 95.4046C153.406 94.5074 147.788 97.2335 147.964 101.669C148.012 102.906 148.559 104.119 149.497 105.081C148.163 103.501 147.92 101.349 148.864 99.5876C149.863 97.7278 152.063 96.5034 154.447 96.1586C156.879 95.8067 159.094 96.374 160.812 97.494C158.081 100.931 159.011 104.903 160.598 106.388C161.268 107.064 162.174 107.505 163.185 107.659C161.669 109.96 158.872 111.621 155.64 112.236C150.421 113.23 145.082 111.346 142.147 107.678C139.417 104.268 138.759 99.9115 140.339 96.0377C141.853 92.3305 145.303 89.4906 149.525 87.8317C152.436 86.6872 155.563 86.1685 158.66 86.2152ZM241.475 86.2162C244.572 86.1696 247.698 86.6881 250.609 87.8326C254.83 89.4915 258.28 92.3314 259.794 96.0386C261.374 99.9124 260.717 104.27 257.987 107.68C255.052 111.348 249.712 113.232 244.495 112.238C241.263 111.623 238.466 109.962 236.951 107.661C237.962 107.507 238.87 107.064 239.54 106.389C241.125 104.904 242.055 100.933 239.324 97.4959C241.042 96.3759 243.256 95.8086 245.688 96.1605C248.072 96.5053 250.271 97.7298 251.269 99.5895C252.213 101.351 251.97 103.503 250.637 105.083C251.575 104.121 252.123 102.908 252.17 101.671C252.345 97.2354 246.73 94.5092 241.882 95.4065C240.642 95.6355 239.531 96.0677 238.564 96.6469C238.339 96.4249 238.1 96.2063 237.839 95.9921C235.097 93.6841 230.016 93.1032 225.897 94.9841C225.638 95.0984 225.714 95.1856 225.969 95.0656C228.381 93.8777 232.013 94.4135 234.774 96.1232C235.601 96.6045 236.35 97.1876 237.008 97.812C234.991 99.687 233.97 102.33 234.253 104.892C234.338 105.661 234.536 106.397 234.829 107.096C233.99 106.856 233.161 106.457 232.438 105.946C230.148 104.337 227.984 100.948 226.353 99.6019C219.635 93.9233 213.454 94.1046 208.906 95.4199C207.226 95.9777 205.761 96.685 204.41 97.5826C204.323 96.4907 205.087 95.7714 206.405 95.3166C207.954 94.7753 209.875 94.592 212.142 94.5647C213.601 94.5467 215.045 94.5952 216.615 94.5687C221.663 94.4565 226.029 93.6483 229.967 91.6963C232.171 90.6142 233.969 89.0247 234.418 87.3232C236.676 86.6306 239.067 86.2525 241.475 86.2162ZM130.445 88.8531C131.072 88.8551 131.698 88.9092 132.313 89.0174C133.508 89.2266 134.675 89.6539 135.651 90.3208C136.564 90.9447 137.453 91.7657 137.758 92.7945C137.791 92.9052 137.817 93.0185 137.837 93.1322C137.849 93.1894 137.859 93.2463 137.867 93.3037C137.876 93.3756 137.875 93.3728 137.8 93.3976C137.579 93.4728 137.357 93.5459 137.136 93.6217C136.677 93.7776 136.219 93.933 135.761 94.0896C133.273 94.9414 130.795 95.8171 128.305 96.6635C128.317 96.1235 128.195 95.5941 127.954 95.1008C127.709 94.6005 127.303 94.1595 126.846 93.8077C126.406 93.4707 125.864 93.1786 125.277 93.1518C124.684 93.1236 124.132 93.4239 123.843 93.8882C123.542 94.3707 123.564 94.9523 123.676 95.4799C123.795 96.0409 124.013 96.579 124.203 97.1231C124.105 96.6836 123.981 96.2485 123.903 95.8052C123.828 95.3781 123.784 94.9233 123.898 94.4986C123.995 94.1352 124.24 93.8104 124.615 93.6393C125.011 93.4629 125.457 93.5476 125.831 93.7333C126.349 93.9876 126.777 94.4061 127.087 94.8539C127.336 95.2157 127.481 95.622 127.538 96.0437C127.577 96.3278 127.571 96.6135 127.524 96.8959C127.512 96.9598 127.358 96.9834 127.292 97.0054C127.217 97.0306 127.142 97.057 127.067 97.0818C126.917 97.1325 126.768 97.1815 126.617 97.2324C125.993 97.4404 125.367 97.6475 124.739 97.8501C124.113 98.0523 123.486 98.2496 122.855 98.445C122.542 98.5434 122.226 98.6397 121.912 98.7352C121.862 98.7512 121.811 98.7666 121.76 98.7806C121.743 98.7524 121.726 98.7219 121.708 98.6929C121.675 98.6337 121.641 98.5739 121.608 98.5132C121.544 98.3933 121.483 98.2719 121.425 98.1486C120.943 97.1174 120.719 95.9642 120.909 94.8507C121.265 92.7499 123.039 91.0985 125.027 90.112C126.668 89.298 128.562 88.846 130.445 88.8531ZM269.554 88.8541C271.437 88.8461 273.331 89.2991 274.973 90.1132C276.959 91.0997 278.733 92.751 279.09 94.8519C279.278 95.9653 279.055 97.1186 278.573 98.1498C278.516 98.2731 278.454 98.3944 278.389 98.5143C278.358 98.5751 278.324 98.6349 278.29 98.694C278.272 98.723 278.257 98.7536 278.237 98.7818C278.188 98.7678 278.137 98.7524 278.088 98.7364C277.773 98.6409 277.457 98.5457 277.145 98.4472C276.513 98.2517 275.887 98.0534 275.26 97.8512C274.633 97.6486 274.006 97.4416 273.381 97.2336C273.232 97.1828 273.082 97.1339 272.931 97.0829C272.856 97.0579 272.781 97.0317 272.707 97.0065C272.64 96.9848 272.485 96.9612 272.475 96.897C272.427 96.6146 272.42 96.329 272.459 96.0449C272.517 95.6232 272.662 95.2169 272.913 94.8551C273.221 94.4073 273.65 93.9887 274.168 93.7344C274.542 93.5488 274.987 93.464 275.383 93.6405C275.759 93.8116 276.003 94.1364 276.101 94.4998C276.216 94.9245 276.173 95.3793 276.097 95.8064C276.019 96.2496 275.895 96.6848 275.798 97.1243C275.987 96.5802 276.206 96.0421 276.325 95.4811C276.437 94.9535 276.458 94.3719 276.158 93.8894C275.868 93.4251 275.315 93.1248 274.723 93.153C274.135 93.1798 273.595 93.4719 273.156 93.8088C272.698 94.1607 272.292 94.6017 272.045 95.102C271.806 95.5953 271.684 96.1247 271.696 96.6647C269.205 95.8183 266.727 94.9426 264.238 94.0908C263.781 93.9341 263.322 93.7789 262.865 93.623C262.644 93.5474 262.422 93.4741 262.201 93.3988C262.126 93.3739 262.126 93.3768 262.134 93.3049C262.142 93.2473 262.15 93.1896 262.163 93.1324C262.183 93.0187 262.21 92.9064 262.242 92.7957C262.547 91.767 263.435 90.9459 264.347 90.322C265.324 89.6551 266.492 89.2267 267.687 89.0175C268.302 88.9094 268.927 88.8565 269.554 88.8541ZM139.221 94.4098C138.488 95.7276 137.987 97.1413 137.758 98.6145C137.671 99.1673 137.624 99.7263 137.617 100.288C135.997 100.897 134.335 101.418 132.632 101.779C130.155 102.308 127.375 102.541 124.991 101.571C125.908 100.881 126.756 100.098 127.391 99.1785C127.477 99.0561 127.558 98.9292 127.634 98.8015C127.671 98.7415 127.705 98.6815 127.737 98.6208C127.753 98.5902 127.772 98.5592 127.787 98.5299C127.825 98.5159 127.862 98.5027 127.9 98.4907C128.212 98.3827 128.524 98.2738 128.834 98.1643C129.456 97.9464 130.077 97.7251 130.697 97.5023C131.932 97.0573 133.163 96.6096 134.395 96.1585C134.279 96.6315 134.195 97.1137 134.212 97.5983C134.231 98.0792 134.357 98.7335 134.987 98.8294C135.574 98.92 136.109 98.5166 136.499 98.1726C137.338 97.4328 137.944 96.4848 138.323 95.4851C138.425 95.2196 138.507 94.9482 138.57 94.6733C138.586 94.6095 138.735 94.5835 138.802 94.5607C138.876 94.5343 138.949 94.5076 139.023 94.4812C139.09 94.4572 139.155 94.4334 139.221 94.4098ZM260.944 94.4698C260.954 94.4738 260.965 94.4777 260.977 94.4817C261.049 94.5081 261.124 94.5349 261.199 94.5613C261.264 94.5841 261.415 94.6103 261.429 94.6738C261.492 94.9488 261.575 95.2202 261.674 95.4857C262.054 96.4854 262.66 97.4335 263.5 98.1731C263.889 98.5172 264.425 98.9206 265.013 98.83C265.642 98.7341 265.768 98.0808 265.788 97.5999C265.803 97.1153 265.72 96.6331 265.604 96.1601C266.837 96.6112 268.067 97.0579 269.302 97.5028C269.921 97.7257 270.544 97.947 271.164 98.1649C271.476 98.2744 271.788 98.3844 272.099 98.4923C272.139 98.5043 272.173 98.5175 272.211 98.5315C272.227 98.5608 272.245 98.5908 272.26 98.6214C272.293 98.6822 272.328 98.7421 272.365 98.8021C272.439 98.9298 272.521 99.0568 272.606 99.1791C273.241 100.099 274.09 100.882 275.008 101.571C272.624 102.541 269.844 102.309 267.367 101.78C265.713 101.428 264.095 100.927 262.515 100.34C262.513 99.7616 262.463 99.1845 262.375 98.6151C262.149 97.1639 261.658 95.7709 260.944 94.4698ZM1.66955 94.9273C0.747884 94.9273 0 95.6768 0 96.6005C0 97.5254 0.747884 98.2748 1.66955 98.2748C2.59287 98.2748 3.34117 97.5254 3.34117 96.6005C3.34117 95.6768 2.59287 94.9273 1.66955 94.9273ZM398.329 94.9273C397.407 94.9273 396.658 95.6768 396.658 96.6005C396.658 97.5254 397.407 98.2748 398.329 98.2748C399.252 98.2748 400 97.5254 400 96.6005C400 95.6768 399.252 94.9273 398.329 94.9273ZM137.771 94.9312C137.554 95.8632 137.118 96.7644 136.486 97.5268C136.195 97.8799 135.846 98.2874 135.386 98.4657C135.171 98.5502 134.911 98.562 134.739 98.3965C134.58 98.2436 134.516 98.0203 134.473 97.8181C134.384 97.4137 134.383 96.9961 134.421 96.5859C134.431 96.4804 134.443 96.3772 134.457 96.2709C134.463 96.2241 134.469 96.1771 134.476 96.1304C134.525 96.1124 134.575 96.0936 134.625 96.0756C134.837 95.9991 135.047 95.9217 135.26 95.8432C136.095 95.5389 136.932 95.2331 137.771 94.9312ZM262.229 94.9323C263.068 95.2341 263.905 95.54 264.741 95.8443C264.951 95.9228 265.163 96.0002 265.374 96.0767C265.422 96.0947 265.472 96.1135 265.523 96.1314C265.529 96.1782 265.535 96.2252 265.541 96.272C265.555 96.3783 265.57 96.4815 265.58 96.587C265.617 96.9972 265.616 97.4148 265.527 97.8192C265.486 98.0214 265.419 98.2447 265.261 98.3976C265.088 98.5629 264.83 98.5511 264.613 98.4667C264.155 98.2886 263.805 97.881 263.513 97.5279C262.883 96.7654 262.444 95.8642 262.229 94.9323ZM217.855 98.6464C218.929 98.8788 219.909 99.2121 220.601 99.5925C221.169 99.9155 221.569 100.247 221.785 100.611C222.27 101.411 221.362 102.445 219.327 103.043C218.297 103.348 216.968 103.535 215.483 103.507C214.964 102.403 215.134 101.275 215.782 100.13H200.066H184.351C185 101.275 185.167 102.404 184.648 103.51C183.165 103.537 181.838 103.348 180.81 103.043C178.774 102.445 177.868 101.411 178.354 100.611C178.568 100.247 178.97 99.9155 179.537 99.5925C180.229 99.2126 181.206 98.8803 182.277 98.6475C182.276 98.6635 182.275 98.678 182.275 98.694C182.275 99.1886 182.644 99.5905 183.102 99.5905H199.904H200.045H200.066H200.087H200.229H217.031C217.488 99.5906 217.859 99.1886 217.859 98.694C217.859 98.678 217.855 98.6624 217.855 98.6464ZM162.271 98.7022C163.616 100.096 164.41 101.906 164.392 103.794C164.381 105.08 164.018 106.274 163.386 107.341C161.344 107.238 159.753 105.812 160.298 102.208C160.471 101.274 161.177 99.9616 162.271 98.7022ZM237.866 98.7022C238.961 99.9616 239.666 101.274 239.84 102.208C240.386 105.812 238.794 107.238 236.753 107.341C236.12 106.274 235.758 105.08 235.746 103.794C235.728 101.906 236.522 100.096 237.866 98.7022ZM126.441 98.9904C125.755 99.7958 124.898 100.478 123.988 101.068C123.566 100.811 123.178 100.509 122.837 100.169C124.046 99.793 125.245 99.396 126.441 98.9904ZM273.559 98.9904C274.754 99.396 275.953 99.793 277.164 100.169C276.822 100.509 276.435 100.811 276.012 101.068C275.102 100.478 274.244 99.7958 273.559 98.9904ZM121.199 100.667C121.215 100.685 121.23 100.703 121.247 100.723C121.326 100.816 121.407 100.906 121.492 100.995C121.806 101.327 122.158 101.631 122.535 101.904C121.534 102.403 120.464 102.786 119.362 103.057C118.215 103.339 117.031 103.504 115.85 103.619C114.532 103.748 113.202 103.799 111.876 103.777C110.566 103.755 109.25 103.67 107.957 103.473C108.418 103.418 108.879 103.358 109.339 103.295C111.874 102.949 114.386 102.456 116.861 101.85C116.347 101.979 115.797 102.117 117.052 101.807C117.463 101.704 117.434 101.711 117.248 101.755C118.208 101.513 119.162 101.254 120.113 100.983C120.375 100.907 120.638 100.831 120.9 100.755C120.963 100.737 121.024 100.719 121.087 100.699L121.199 100.667ZM278.803 100.668L278.913 100.7C278.975 100.72 279.038 100.737 279.101 100.755C279.36 100.832 279.624 100.909 279.885 100.984C280.837 101.255 281.793 101.514 282.753 101.756C282.566 101.712 282.538 101.705 282.948 101.808C284.204 102.118 283.654 101.979 283.14 101.851C285.613 102.457 288.125 102.95 290.661 103.296C291.119 103.359 291.582 103.419 292.042 103.474C290.749 103.671 289.435 103.756 288.124 103.778C286.797 103.8 285.468 103.749 284.15 103.619C282.969 103.505 281.783 103.34 280.636 103.058C279.535 102.787 278.467 102.404 277.465 101.905C277.842 101.632 278.192 101.328 278.508 100.996C278.592 100.907 278.673 100.817 278.751 100.724C278.769 100.704 278.785 100.686 278.803 100.668ZM187.318 101.15C187.991 101.15 188.537 101.566 188.537 102.08C188.537 102.595 187.991 103.012 187.318 103.012C186.643 103.012 186.097 102.595 186.097 102.08C186.097 101.566 186.643 101.15 187.318 101.15ZM192.414 101.15C193.087 101.15 193.633 101.566 193.633 102.08C193.633 102.595 193.087 103.012 192.414 103.012C191.741 103.012 191.195 102.595 191.195 102.08C191.195 101.566 191.741 101.15 192.414 101.15ZM197.511 101.15C198.184 101.15 198.729 101.566 198.729 102.08C198.729 102.595 198.184 103.012 197.511 103.012C196.838 103.012 196.293 102.595 196.293 102.08C196.293 101.566 196.838 101.15 197.511 101.15ZM202.624 101.15C203.297 101.15 203.842 101.566 203.842 102.08C203.842 102.595 203.297 103.012 202.624 103.012C201.951 103.012 201.405 102.595 201.405 102.08C201.405 101.566 201.951 101.15 202.624 101.15ZM207.72 101.15C208.393 101.15 208.939 101.566 208.939 102.08C208.939 102.595 208.393 103.012 207.72 103.012C207.047 103.012 206.502 102.595 206.502 102.08C206.502 101.566 207.047 101.15 207.72 101.15ZM212.816 101.15C213.492 101.15 214.037 101.566 214.037 102.08C214.037 102.595 213.492 103.012 212.816 103.012C212.144 103.012 211.597 102.595 211.597 102.08C211.597 101.566 212.144 101.15 212.816 101.15Z" fill="#FFF0F0"/>
<path d="M82.6875 51V46.625V42.25V37.875V33.5V29.125V24.75V20.375V16H78.3125H73.9375H69.5625V11.625H73.9375H78.3125H82.6875H87.0625H91.4375H95.8125H100.188V16H95.8125H91.4375H87.0625V20.375V24.75V29.125V33.5V37.875V42.25V46.625V51H82.6875ZM140.787 51V46.625V42.25V37.875V33.5V29.125H136.412H132.037H127.662H123.287V24.75H127.662H132.037H136.412H140.787V20.375V16V11.625H145.162V16V20.375V24.75V29.125V33.5V37.875V42.25V46.625V51H140.787ZM114.537 51V46.625V42.25V37.875V33.5V29.125V24.75V20.375V16V11.625H118.912V16V20.375V24.75V29.125V33.5V37.875V42.25V46.625V51H114.537ZM181.387 46.625H185.762V51H181.387H177.012H172.637H168.262H163.887V46.625H168.262H172.637H177.012H181.387ZM163.887 46.625H159.512V42.25V37.875V33.5V29.125V24.75V20.375V16H163.887V20.375V24.75V29.125H168.262H172.637H177.012H181.387V33.5H177.012H172.637H168.262H163.887V37.875V42.25V46.625ZM181.387 11.625H185.762V16H181.387H177.012H172.637H168.262H163.887V11.625H168.262H172.637H177.012H181.387ZM221.988 46.625H226.363V51H221.988H217.613H213.238H208.863V46.625H213.238H217.613H221.988ZM226.363 46.625V42.25H230.738V46.625H226.363ZM208.863 46.625H204.488V42.25H208.863V46.625ZM230.738 42.25V37.875V33.5V29.125V24.75V20.375H235.113V24.75V29.125V33.5V37.875V42.25H230.738ZM204.488 42.25H200.113V37.875V33.5V29.125V24.75V20.375H204.488V24.75V29.125V33.5V37.875V42.25ZM230.738 20.375H226.363V16H230.738V20.375ZM204.488 20.375V16H208.863V20.375H204.488ZM226.363 16H221.988H217.613H213.238H208.863V11.625H213.238H217.613H221.988H226.363V16ZM249.462 51V46.625V42.25V37.875V33.5V29.125V24.75V20.375V16H253.837V20.375V24.75V29.125V33.5V37.875V42.25V46.625V51H249.462ZM280.087 51H275.712V46.625V42.25V37.875V33.5H280.087V37.875V42.25V46.625H284.462V51H280.087ZM275.712 33.5H271.337H266.962H262.587H258.212V29.125H262.587H266.962H271.337H275.712V33.5ZM275.712 29.125V24.75V20.375V16H280.087V20.375V24.75V29.125H275.712ZM275.712 16H271.337H266.962H262.587H258.212H253.837V11.625H258.212H262.587H266.962H271.337H275.712V16ZM311.938 51V46.625V42.25V37.875V33.5H316.312V37.875V42.25V46.625V51H311.938ZM316.312 33.5V29.125H320.688V33.5H316.312ZM311.938 33.5H307.562V29.125H311.938V33.5ZM320.688 29.125V24.75H325.062V29.125H320.688ZM307.562 29.125H303.188V24.75H307.562V29.125ZM325.062 24.75V20.375V16V11.625H329.438V16V20.375V24.75H325.062ZM303.188 24.75H298.812V20.375V16V11.625H303.188V16V20.375V24.75Z" fill="#FFF0F0"/>
</svg>
