<svg width="247" height="179" viewBox="0 0 247 179" fill="none" xmlns="http://www.w3.org/2000/svg">
<path d="M140.173 143.095C140.973 142.879 141.446 142.055 141.23 141.255C141.23 141.255 141.23 141.254 141.229 141.253C144.282 140.419 147.345 139.552 150.4 138.648C150.4 138.649 150.4 138.65 150.4 138.65C150.638 139.444 151.475 139.894 152.268 139.656C158.324 137.84 164.347 135.876 170.202 133.732C170.98 133.447 171.38 132.586 171.095 131.808C171.094 131.807 171.094 131.805 171.093 131.804C174.103 130.681 177.063 129.511 179.955 128.287C179.955 128.289 179.956 128.291 179.957 128.292C180.286 129.053 181.169 129.403 181.929 129.074C187.93 126.479 193.638 123.646 198.88 120.532C199.593 120.109 199.827 119.188 199.404 118.476C199.402 118.473 199.4 118.47 199.399 118.468C202.179 116.765 204.815 114.981 207.279 113.109C207.281 113.113 207.284 113.117 207.287 113.12C207.801 113.77 208.744 113.881 209.394 113.368C211.971 111.334 214.357 109.193 216.517 106.937C218.915 104.434 221.083 101.892 223.011 99.3317C223.51 98.67 223.378 97.7295 222.716 97.231C222.712 97.228 222.708 97.225 222.704 97.222C224.774 94.3555 226.533 91.4768 227.974 88.6174C227.98 88.6204 227.986 88.6234 227.993 88.6263C228.743 88.9785 229.636 88.6562 229.988 87.9063C233.17 81.1315 234.631 74.407 234.162 68.1475C234.1 67.3213 233.381 66.7018 232.555 66.7636C232.541 66.7646 232.528 66.7657 232.515 66.7671C232.08 63.3858 231.032 60.1878 229.35 57.2478C229.362 57.2402 229.375 57.2324 229.387 57.2243C230.081 56.7714 230.276 55.8419 229.823 55.1483C228.017 52.3836 225.661 49.8723 222.751 47.669C220.458 45.9327 217.77 44.6371 214.791 43.6871C214.002 43.4354 213.158 43.8711 212.906 44.6604C212.903 44.6706 212.9 44.6809 212.897 44.6912C210.401 44.0098 207.681 43.5448 204.779 43.2538C204.78 43.2486 204.78 43.2433 204.78 43.238C204.845 42.4122 204.229 41.69 203.403 41.625C198.137 41.2106 192.36 41.3155 186.318 41.7019C185.492 41.7547 184.864 42.4678 184.917 43.2946C184.917 43.2963 184.917 43.2981 184.917 43.2998C182.227 43.4906 179.479 43.7337 176.694 44.0091C176.694 44.0083 176.694 44.0074 176.694 44.0066C176.61 43.1825 175.873 42.5828 175.049 42.6672C171.027 43.0791 166.931 43.5511 162.837 44.023C161.308 44.1992 159.779 44.3754 158.254 44.5485C157.431 44.6419 156.84 45.3843 156.933 46.2071C154.183 46.5156 151.441 46.8115 148.725 47.077C148.646 46.2538 147.916 45.6494 147.092 45.7267C144.26 45.9924 141.465 46.2207 138.727 46.3914C135.422 46.5974 132.097 46.7074 128.757 46.7555C127.93 46.7675 127.269 47.4464 127.279 48.273C123.818 48.3045 120.349 48.2754 116.88 48.2239C116.893 47.3961 116.232 46.7142 115.405 46.7005C113.853 46.6749 112.299 46.6459 110.744 46.6168C105.584 46.5202 100.41 46.4235 95.2739 46.4525C94.4455 46.4572 93.7777 47.1326 93.7824 47.961C93.7824 47.9622 93.7824 47.9635 93.7824 47.9647C90.2994 48.002 86.8329 48.1031 83.3907 48.3079C83.3905 48.3056 83.3904 48.3033 83.3902 48.301C83.3335 47.4745 82.6176 46.8505 81.7911 46.9072C74.9932 47.3734 68.2648 48.2658 61.6778 49.8938C60.8736 50.0926 60.3828 50.9057 60.5816 51.7099C60.5826 51.714 60.5836 51.718 60.5846 51.722C57.2523 52.6051 53.9632 53.6858 50.7253 55.0051C50.7234 55.0005 50.7215 54.996 50.7195 54.9914C50.3918 54.2306 49.5093 53.8794 48.7485 54.2072C45.6617 55.5367 42.6206 57.0868 39.633 58.892C36.2736 60.9218 33.2868 63.0363 30.6398 65.22C30.0008 65.7472 29.9101 66.6926 30.4373 67.3317C30.4411 67.3363 30.4449 67.3408 30.4487 67.3453C27.3663 70.0146 24.7989 72.7738 22.6791 75.5911C22.6726 75.5864 22.6661 75.5817 22.6595 75.5771C21.9819 75.1004 21.0463 75.2633 20.5696 75.9409C15.8511 82.6482 13.5025 89.6558 12.6943 96.5453C12.5977 97.3681 13.1865 98.1133 14.0093 98.2099C14.0173 98.2108 14.0253 98.2117 14.0333 98.2125C13.7066 102.061 13.8581 105.866 14.3306 109.552C14.3248 109.553 14.319 109.554 14.3132 109.555C13.4942 109.679 12.9314 110.444 13.0561 111.263C13.6246 114.997 14.4975 118.588 15.511 121.959C16.4042 124.93 18.0387 127.474 20.2188 129.662C20.8035 130.249 21.7532 130.251 22.3401 129.666C22.3524 129.654 22.3644 129.642 22.3762 129.629C24.2953 131.311 26.6026 132.779 29.208 134.08C29.2046 134.087 29.2014 134.094 29.1981 134.101C28.8515 134.853 29.1805 135.744 29.933 136.091C34.6842 138.279 40.2422 139.971 46.109 141.416C46.9134 141.614 47.7261 141.122 47.9241 140.318C47.9246 140.316 47.9251 140.314 47.9256 140.312C50.5358 140.932 53.2123 141.51 55.9155 142.067C55.9154 142.068 55.9152 142.069 55.9151 142.07C55.7503 142.881 56.2748 143.673 57.0867 143.838C59.1243 144.252 61.1745 144.656 63.2142 145.058C63.9167 145.196 64.6181 145.335 65.3172 145.473C68.527 146.108 71.7717 146.707 75.0633 147.238C75.8812 147.369 76.651 146.813 76.7828 145.995C76.7831 145.993 76.7834 145.992 76.7836 145.99C80.0852 146.498 83.4324 146.931 86.8398 147.255C86.8396 147.258 86.8393 147.26 86.8391 147.263C86.7687 148.088 87.3808 148.814 88.2063 148.885C94.5896 149.429 101.196 149.584 108.114 149.137C108.94 149.084 109.567 148.37 109.514 147.544C109.514 147.541 109.513 147.538 109.513 147.535C112.794 147.282 116.145 146.891 119.575 146.338C119.576 146.341 119.576 146.344 119.577 146.347C119.719 147.163 120.495 147.71 121.311 147.568C124.491 147.016 127.738 146.327 131.059 145.482C134.072 144.716 137.116 143.921 140.173 143.095Z" stroke="#28582D" stroke-width="3" stroke-linecap="round" stroke-dasharray="18 12"/>
<path d="M75 103V100.5V98V95.5V93V90.5V88V85.5V83H72.5H70H67.5V80.5H70H72.5H75H77.5H80H82.5H85V83H82.5H80H77.5V85.5V88V90.5V93V95.5V98V100.5V103H75ZM100 103V100.5V98V95.5V93V90.5H102.5V93V95.5V98V100.5V103H100ZM90 103V100.5V98V95.5V93V90.5V88V85.5V83V80.5H92.5V83V85.5V88H95H97.5H100V90.5H97.5H95H92.5V93V95.5V98V100.5V103H90ZM115 100.5H117.5V103H115H112.5H110V100.5H112.5H115ZM117.5 100.5V98H120V100.5H117.5ZM110 100.5H107.5V98V95.5V93V90.5H110V93H112.5H115H117.5V95.5H115H112.5H110V98V100.5ZM117.5 93V90.5H120V93H117.5ZM117.5 90.5H115H112.5H110V88H112.5H115H117.5V90.5ZM132.5 100.5H135V103H132.5H130H127.5V100.5H130H132.5ZM135 100.5V98V95.5V93V90.5H137.5V93V95.5V98V100.5H135ZM127.5 100.5H125V98V95.5V93V90.5H127.5V93V95.5V98V100.5ZM135 90.5H132.5H130H127.5V88H130H132.5H135V90.5ZM142.5 103V100.5V98V95.5V93V90.5V88H145V90.5H147.5V93H145V95.5V98V100.5V103H142.5ZM150 88H152.5V90.5H150H147.5V88H150ZM165 108H167.5V110.5H165H162.5H160V108H162.5H165ZM167.5 108V105.5V103V100.5H165H162.5H160V98H162.5H165H167.5V95.5V93V90.5V88H170V90.5V93V95.5V98V100.5V103V105.5V108H167.5ZM160 108H157.5V105.5H160V108ZM160 98H157.5V95.5V93V90.5V88H160V90.5V93V95.5V98Z" fill="#FFF0F0"/>
</svg>
