<svg width="400" height="32" viewBox="0 0 400 32" fill="none" xmlns="http://www.w3.org/2000/svg">
<path d="M171.053 0.114539C168.759 0.0871565 166.24 0.803347 165.67 2.90635C165.622 3.14327 165.606 3.3796 165.614 3.61487C159.374 1.52188 151.998 1.8842 146.011 5.01748C143.781 6.18429 141.9 7.72543 140.487 9.51657C139.884 9.71044 139.281 9.90606 138.681 10.1053C138.63 9.65258 138.504 9.21306 138.296 8.79875C137.794 7.80065 136.896 6.94905 135.929 6.30649C134.953 5.65776 133.821 5.21209 132.647 4.9545C130.214 4.41861 127.583 4.68728 125.282 5.55354C123.101 6.37342 121.1 7.79372 120.034 9.73658C119.478 10.7496 119.213 11.8685 119.263 12.9973C119.312 14.1236 119.66 15.2324 120.215 16.2384C119.95 16.3143 119.686 16.3897 119.42 16.4646C116.912 17.1708 114.372 17.7821 111.797 18.2493C109.21 18.7211 106.594 19.062 103.965 19.2687C103.912 19.2727 103.859 19.2768 103.807 19.2808C103.777 19.2668 103.748 19.2524 103.719 19.2384C103.66 19.2096 103.602 19.1808 103.544 19.1506C103.429 19.0889 103.316 19.0263 103.205 18.9606C102.976 18.8255 102.754 18.6786 102.544 18.5195C102.137 18.2107 101.77 17.8545 101.484 17.4485C100.966 16.7129 100.742 15.8286 100.777 14.9603C100.816 13.9543 101.211 12.9506 101.918 12.1696C102.649 11.3621 103.741 10.7937 104.911 10.7897C107.569 10.7777 108.645 13.3693 109.357 15.2691C109.69 16.1581 110.01 17.0501 110.337 17.9411C110.334 17.784 110.331 17.6279 110.329 17.4712C110.319 16.9386 110.31 16.407 110.299 15.8744C110.284 15.0483 110.377 14.2293 110.616 13.4317C110.922 12.42 111.442 11.4334 112.208 10.6399C112.589 10.2479 113.032 9.90698 113.53 9.64115C114.063 9.35664 114.647 9.18562 115.255 9.08549C114.822 9.10608 114.391 9.17922 113.981 9.30339C111.692 9.99224 110.32 12.1025 109.792 14.1227C109.671 13.7841 109.544 13.4477 109.398 13.1177C108.958 12.1304 108.332 11.1573 107.368 10.5181C106.397 9.87507 105.157 9.64035 103.978 9.83222C102.097 10.1382 100.66 11.4294 99.9475 12.9866C98.5122 13.2297 97.5662 13.2655 97.5596 13.2665C96.5567 13.3326 95.5773 13.3662 94.5781 13.3914C92.0297 13.37 89.2801 13.3436 86.3798 13.3108C87.0535 13.2615 87.7682 13.1995 88.543 13.126C93.3997 13.448 95.8822 11.4048 96.4672 7.47107C96.4366 7.46991 96.4091 7.47225 96.3786 7.47107C96.3798 7.45908 96.3821 7.45009 96.3837 7.4381C91.5551 7.14825 90.7266 10.8618 88.2009 12.8812C87.9133 12.9052 87.6367 12.9292 87.3682 12.9514C85.6841 11.4802 84.8732 9.22338 82.9511 7.96476C82.0636 7.35654 80.9371 6.96109 79.3615 6.96908C79.5608 9.1394 80.3645 10.7702 81.8494 11.7915C82.8845 12.5332 84.27 12.9633 86.0222 13.0608C84.4338 13.184 83.1626 13.2583 82.0957 13.2623C81.8597 13.2583 81.6251 13.2562 81.3866 13.2522C79.8379 13.2047 78.7276 12.9695 77.5971 12.4725C79.653 11.5426 79.363 10.7377 78.3402 9.95333C77.5964 9.35378 76.4026 8.76813 75.4669 8.15205C75.396 8.10588 75.3305 8.05509 75.267 8.00432C74.3231 7.17035 74.3415 5.90764 74.3415 5.90764C74.3172 5.94122 74.2946 5.97502 74.2694 6.0078C74.2608 5.89847 74.2632 5.83009 74.2632 5.83009C72.594 8.06862 71.8523 10.7271 73.3882 11.989C74.0496 12.5897 75.1786 12.9075 76.9077 12.7636C77.5001 12.9451 78.1327 13.1009 78.8617 13.2212C76.954 13.1964 75.0045 13.1692 73.0275 13.1416C72.8341 12.323 72.0988 11.7187 71.225 11.7287C70.3859 11.7367 69.6929 12.3131 69.4833 13.0879C69.2127 13.0839 68.9404 13.0799 68.6681 13.0759C68.5035 12.8424 68.2353 12.6864 67.9292 12.6824C67.626 12.6784 67.3582 12.8251 67.1882 13.0501C66.0322 13.0321 64.8732 13.0141 63.709 12.9934C55.9808 12.8586 41.6754 12.6223 27.4395 12.1154C26.3445 12.075 25.2493 12.0351 24.1581 11.9925C24.1493 11.9945 24.1409 11.9965 24.1313 11.9985C18.992 12.7688 13.708 13.1015 8.41688 13.1429C8.20648 12.113 7.29586 11.3365 6.20421 11.3365C4.95785 11.3365 3.94722 12.3508 3.94722 13.5994C3.94722 14.8498 4.95785 15.8624 6.20421 15.8624C7.28802 15.8624 8.19101 15.0964 8.40967 14.0776C13.7115 14.1186 19.0084 14.454 24.1581 15.2293C25.2493 15.1863 26.3445 15.1463 27.4395 15.1074C41.6754 14.5988 55.9808 14.3631 63.709 14.2284C64.8732 14.208 66.0322 14.1896 67.1882 14.1696C67.3582 14.3957 67.626 14.5413 67.9292 14.5373C68.2353 14.5353 68.5035 14.3804 68.6681 14.1469C68.9404 14.1429 69.2127 14.1409 69.4833 14.1349C69.6921 14.9102 70.3859 15.4852 71.225 15.4952C72.0988 15.5052 72.8349 14.8994 73.0275 14.0812C75.0045 14.0526 76.954 14.0274 78.8617 14.0026C78.1327 14.1218 77.5001 14.2781 76.9077 14.4612C75.1778 14.3173 74.049 14.6335 73.3872 15.2359C71.8529 16.4974 72.594 19.1546 74.2632 21.3927C74.2632 21.3927 74.2608 21.3253 74.2694 21.215C74.2945 21.248 74.3172 21.2826 74.3415 21.3161C74.3415 21.3161 74.3234 20.0551 75.2649 19.2215C75.328 19.1693 75.3951 19.12 75.4669 19.0728C76.4051 18.4543 77.6005 17.869 78.3443 17.2674C79.3629 16.4851 79.6497 15.6798 77.5971 14.7524C78.7284 14.2537 79.8399 14.0187 81.3907 13.9716C81.6308 13.9676 81.8675 13.9656 82.106 13.9636C83.1696 13.9676 84.4394 14.0401 86.0232 14.1628C84.2723 14.2626 82.8884 14.6906 81.8524 15.4312C80.366 16.4524 79.5608 18.083 79.3615 20.2546C80.9371 20.2626 82.0636 19.8669 82.951 19.2599C84.8732 18.0005 85.6841 15.7426 87.3681 14.2723C87.6367 14.2963 87.9133 14.3195 88.2009 14.3447C90.7266 16.3632 91.5551 20.0764 96.3837 19.7878C96.3821 19.7758 96.3795 19.7646 96.3785 19.7526C96.4091 19.7515 96.4366 19.7536 96.4672 19.7526C95.8822 15.8189 93.3997 13.7765 88.543 14.0998C87.7682 14.0245 87.0535 13.9633 86.3798 13.9129C89.2772 13.8816 92.0233 13.856 94.5668 13.8324C95.5701 13.858 96.5533 13.89 97.5596 13.9573C97.5658 13.9582 98.3427 13.9895 99.5548 14.1753C99.5478 14.21 99.5346 14.2438 99.528 14.2786C99.3638 15.1965 99.4424 16.1335 99.7568 17.0187C100.858 19.4954 103.746 20.6512 104.186 20.8454C104.328 20.8984 104.472 20.9492 104.616 20.9984C105.226 21.2043 105.85 21.3718 106.484 21.5065C107.766 21.7765 109.079 21.9193 110.392 21.9826C111.719 22.0458 113.052 22.0374 114.377 21.9497C116.619 21.8016 118.9 21.4756 121 20.7247C121.582 20.5167 122.149 20.2742 122.696 19.9996C122.976 19.8577 123.25 19.7082 123.52 19.5503C123.577 19.5178 123.668 19.5937 123.727 19.6227C123.792 19.6547 123.858 19.6842 123.925 19.7156C124.057 19.7768 124.19 19.8347 124.326 19.8901C125.48 20.3573 126.733 20.5893 127.992 20.6369C130.599 20.7366 133.181 20.1643 135.618 19.3716C136.312 19.145 136.999 18.8992 137.675 18.6362C138.013 22.1321 139.833 25.5809 142.954 27.9422C146.814 30.8617 152.502 31.8459 157.439 30.3963C160.857 29.3919 163.701 27.3245 165.064 24.6175C165.574 24.5203 166.089 24.3576 166.598 24.1145C169.556 22.7091 171.234 20.5272 172.574 19.4997C175.317 17.1239 179.901 13.3782 185.458 12.8523C186.975 12.6878 189.826 12.4711 193.071 13.755C193.796 14.0262 194.539 14.376 195.286 14.7961H186.979C186.623 14.7761 186.242 14.7761 185.842 14.7961H183.104C182.778 14.7961 182.496 15.0002 182.362 15.297C180.85 15.6299 179.532 16.084 178.671 16.648C177.349 17.5188 177.397 18.6524 179.004 19.5699C180.124 20.2021 182.033 20.7208 184.537 20.7288C184.48 20.8305 184.42 20.9322 184.352 21.0335H200.067H215.783C215.714 20.9314 215.654 20.8299 215.598 20.7278C218.104 20.7218 220.016 20.2029 221.137 19.5699C222.743 18.6524 222.791 17.5188 221.469 16.648C220.607 16.0836 219.287 15.6294 217.773 15.2949C217.637 14.9993 217.356 14.7961 217.033 14.7961H214.306C213.901 14.7761 213.515 14.7761 213.156 14.7961H204.856C205.602 14.376 206.347 14.0262 207.071 13.755C210.316 12.4711 213.166 12.6878 214.682 12.8523C220.239 13.3782 224.825 17.1239 227.567 19.4997C228.907 20.5272 230.585 22.7091 233.543 24.1145C234.05 24.3576 234.566 24.5203 235.075 24.6175C236.436 27.3245 239.283 29.3919 242.699 30.3963C247.634 31.8459 253.323 30.8617 257.182 27.9422C260.289 25.5916 262.105 22.1641 262.455 18.6848C263.09 18.9296 263.734 19.1591 264.383 19.3716C266.821 20.1643 269.402 20.7364 272.009 20.6369C273.268 20.5893 274.523 20.3573 275.676 19.8901C275.812 19.8347 275.944 19.7768 276.077 19.7156C276.144 19.6842 276.209 19.6547 276.276 19.6227C276.332 19.5937 276.425 19.5176 276.482 19.5503C276.75 19.7082 277.025 19.8577 277.306 19.9996C277.854 20.2742 278.42 20.5167 279.001 20.7247C281.102 21.4756 283.383 21.8016 285.625 21.9497C286.95 22.0374 288.282 22.046 289.609 21.9826C290.923 21.9193 292.235 21.7765 293.517 21.5065C294.15 21.3718 294.776 21.2043 295.386 20.9984C295.529 20.9492 295.673 20.8984 295.817 20.8454C296.256 20.6512 299.144 19.4954 300.246 17.0187C300.559 16.1335 300.639 15.1965 300.475 14.2786C300.469 14.2442 300.455 14.2102 300.449 14.1763C301.656 13.991 302.438 13.9576 302.444 13.9573C303.45 13.8897 304.432 13.858 305.435 13.8324C307.98 13.856 310.726 13.8815 313.622 13.9129C312.95 13.9633 312.234 14.0247 311.458 14.0998C306.602 13.7765 304.12 15.8188 303.534 19.7526C303.564 19.7535 303.593 19.7514 303.625 19.7526C303.621 19.7646 303.621 19.7758 303.617 19.7878C308.446 20.0763 309.275 16.3622 311.801 14.3436C312.089 14.3184 312.365 14.2962 312.633 14.2722C314.317 15.7426 315.13 18.0004 317.051 19.2599C317.938 19.8669 319.065 20.2625 320.639 20.2545C320.442 18.0829 319.636 16.4524 318.15 15.4311C317.114 14.6906 315.728 14.2623 313.978 14.1628C315.562 14.04 316.831 13.9675 317.895 13.9635C318.134 13.9655 318.37 13.9695 318.61 13.9715C320.161 14.0186 321.272 14.2536 322.403 14.7523C320.351 15.6797 320.637 16.484 321.657 17.2663C322.401 17.8679 323.596 18.4542 324.535 19.0727C324.606 19.1199 324.673 19.1693 324.738 19.2214C325.678 20.055 325.66 21.316 325.66 21.316C325.684 21.2825 325.708 21.2479 325.732 21.2149C325.74 21.3254 325.74 21.3926 325.74 21.3926C327.408 19.1545 328.15 16.4983 326.616 15.2368C325.956 14.6345 324.825 14.3172 323.096 14.4611C322.503 14.2779 321.871 14.1217 321.142 14.0026C323.05 14.0273 324.999 14.0525 326.976 14.0811C327.169 14.8994 327.904 15.5061 328.777 15.4961C329.617 15.4861 330.312 14.9101 330.521 14.1348C330.792 14.1388 331.065 14.1428 331.337 14.1468C331.501 14.3805 331.769 14.5352 332.075 14.5372C332.378 14.5412 332.646 14.3957 332.816 14.1696C333.971 14.1895 335.13 14.2083 336.294 14.2283C344.023 14.363 358.329 14.5987 372.565 15.1073C373.661 15.146 374.754 15.1862 375.845 15.2292C380.995 14.4539 386.291 14.1185 391.594 14.0775C391.811 15.096 392.715 15.8618 393.799 15.8623C395.046 15.8618 396.056 14.8494 396.056 13.5993C396.056 12.3507 395.046 11.3364 393.798 11.3364C392.706 11.3364 391.798 12.1129 391.586 13.1428C386.295 13.1015 381.01 12.7687 375.871 11.9984C375.863 11.9944 375.853 11.9944 375.845 11.9924C374.754 12.035 373.66 12.0748 372.564 12.1154C358.328 12.6223 344.022 12.8586 336.293 12.9933C335.129 13.0139 333.97 13.0321 332.815 13.05C332.645 12.8251 332.377 12.6783 332.074 12.6823C331.768 12.6863 331.5 12.8422 331.336 13.0759C331.064 13.0798 330.791 13.0838 330.519 13.0878C330.31 12.313 329.617 11.7366 328.777 11.7286C327.904 11.7186 327.168 12.3229 326.975 13.1415C324.998 13.1691 323.05 13.1963 321.142 13.2211C321.871 13.1008 322.503 12.945 323.096 12.7635C324.825 12.9074 325.953 12.5896 326.613 11.9889C328.149 10.727 327.409 8.06856 325.74 5.83003C325.74 5.83003 325.74 5.89858 325.732 6.00771C325.708 5.97513 325.685 5.94116 325.661 5.90758C325.661 5.90758 325.681 7.17029 324.737 8.00426C324.672 8.05503 324.607 8.10559 324.536 8.15196C323.601 8.76803 322.405 9.35372 321.661 9.95327C320.639 10.7376 320.348 11.5425 322.403 12.4724C321.274 12.9694 320.164 13.2046 318.617 13.2522C318.377 13.2562 318.144 13.2582 317.907 13.2622C316.839 13.2582 315.567 13.184 313.98 13.0608C315.732 12.9632 317.117 12.5332 318.152 11.7914C319.637 10.7701 320.442 9.13933 320.639 6.96902C319.065 6.96102 317.938 7.35645 317.051 7.96467C315.13 9.22329 314.318 11.4801 312.634 12.9513C312.366 12.9289 312.09 12.9051 311.802 12.8811C309.276 10.8617 308.446 7.14819 303.617 7.43804C303.621 7.45003 303.621 7.45902 303.625 7.47101C303.593 7.47219 303.566 7.46985 303.535 7.47101C304.121 11.4048 306.603 13.448 311.459 13.1259C312.235 13.1994 312.95 13.2616 313.622 13.3107C310.723 13.3433 307.973 13.3699 305.425 13.3913C304.426 13.3659 303.447 13.3325 302.444 13.2664C302.438 13.2655 301.491 13.2286 300.056 12.9855C299.343 11.4283 297.903 10.1381 296.022 9.83216C294.844 9.64029 293.605 9.87512 292.634 10.518C291.67 11.1572 291.044 12.1303 290.605 13.1176C290.459 13.4476 290.33 13.784 290.209 14.1226C289.683 12.1024 288.31 9.99218 286.021 9.30333C285.611 9.17941 285.18 9.10624 284.747 9.0854C285.355 9.18553 285.941 9.35658 286.471 9.64109C286.969 9.90692 287.414 10.2479 287.794 10.6399C288.559 11.4333 289.08 12.4199 289.386 13.4316C289.625 14.2292 289.717 15.0482 289.703 15.8743C289.691 16.4069 289.683 16.9386 289.673 17.4711C289.671 17.6278 289.667 17.784 289.665 17.9411C289.993 17.0501 290.312 16.158 290.647 15.2691C291.356 13.3692 292.432 10.7776 295.089 10.7896C296.26 10.7936 297.354 11.362 298.082 12.1695C298.791 12.9505 299.184 13.9543 299.222 14.9602C299.258 15.8285 299.033 16.7129 298.518 17.4484C298.23 17.8544 297.864 18.2106 297.456 18.5195C297.247 18.6785 297.028 18.8254 296.798 18.9605C296.686 19.0262 296.573 19.089 296.458 19.1506C296.4 19.1806 296.341 19.2093 296.283 19.2383C296.255 19.2523 296.224 19.2667 296.195 19.2807C296.141 19.2767 296.09 19.2727 296.038 19.2687C293.408 19.062 290.793 18.721 288.204 18.2493C285.628 17.7821 283.089 17.1707 280.582 16.4645C280.315 16.3895 280.051 16.3144 279.786 16.2383C280.34 15.2323 280.689 14.1235 280.74 12.9972C280.788 11.8685 280.523 10.7495 279.967 9.73649C278.902 7.79362 276.9 6.37336 274.72 5.55347C272.42 4.68722 269.787 4.41852 267.354 4.95441C266.179 5.212 265.05 5.65766 264.073 6.3064C263.105 6.94896 262.208 7.80055 261.708 8.79866C261.5 9.21297 261.371 9.65249 261.32 10.1052C260.78 9.92575 260.237 9.74922 259.696 9.57433C258.279 7.75797 256.38 6.19746 254.125 5.01742C248.14 1.88413 240.764 1.52182 234.526 3.61481C234.534 3.37954 234.52 3.14318 234.469 2.90626C233.768 0.318074 230.113 -0.170734 227.562 0.243574C225.955 0.557808 224.531 1.38351 223.746 2.5871C222.378 4.45227 225.112 6.3795 227.808 5.39336C229.355 4.80749 229.961 3.51193 228.786 2.98268C228.656 2.90913 228.49 2.85276 228.309 2.82678C227.712 2.74323 227.075 2.98008 226.832 3.38659C226.588 3.79303 226.861 4.2331 227.495 4.34303C227.619 4.36461 227.747 4.3726 227.874 4.3648C227.667 5.04707 226.222 5.28119 225.388 5.09092C223.032 4.52983 223.541 2.35737 225.387 1.28897C227.731 -0.156942 230.682 0.663819 232.223 2.0626C232.718 2.615 233.071 3.30646 232.97 4.19749C230.146 5.3709 227.623 7.07883 225.654 9.28635C225.518 9.43345 225.369 9.602 225.225 9.77489C227.295 7.64634 229.913 5.99201 232.81 4.87606C232.79 4.93163 232.771 4.986 232.751 5.04237C232.216 6.32784 230.75 7.9853 227.379 9.39068C223.446 10.9523 219.269 11.474 214.421 11.3789C210.041 11.3038 205.919 10.9347 203.623 12.1205C202.489 12.6993 202.118 13.6732 202.528 14.7945H200.23H200.088H200.067H200.047H199.905H197.608C198.019 13.6741 197.651 12.6989 196.518 12.1205C194.223 10.9347 190.099 11.3038 185.719 11.3789C180.87 11.474 176.693 10.9523 172.762 9.39068C169.39 7.9853 167.924 6.32784 167.39 5.04237C167.367 4.986 167.35 4.93143 167.33 4.87606C170.227 5.99201 172.845 7.64634 174.916 9.77489C174.773 9.602 174.624 9.43343 174.488 9.28635C172.517 7.07883 169.994 5.3709 167.17 4.19749C167.067 3.30646 167.422 2.615 167.918 2.0626C169.458 0.663819 172.41 -0.156942 174.754 1.28897C176.6 2.35737 177.109 4.52983 174.754 5.09092C173.919 5.28119 172.474 5.04713 172.266 4.3648C172.394 4.3728 172.521 4.36451 172.646 4.34303C173.28 4.2331 173.552 3.79303 173.31 3.38659C173.066 2.98024 172.429 2.74323 171.831 2.82678C171.649 2.85276 171.484 2.90913 171.355 2.98268C170.179 3.51193 170.785 4.80749 172.333 5.39336C175.03 6.3795 177.764 4.45227 176.395 2.5871C175.611 1.38351 174.185 0.557808 172.579 0.243574C172.1 0.165825 171.582 0.120934 171.053 0.114539ZM158.66 3.21517C161.069 3.25154 163.46 3.62973 165.72 4.32238C166.169 6.02382 167.967 7.61342 170.17 8.69549C174.109 10.6475 178.475 11.4547 183.524 11.5668C185.093 11.5938 186.538 11.5446 187.998 11.5628C190.264 11.5902 192.186 11.7735 193.735 12.3147C195.052 12.7695 195.815 13.4888 195.728 14.5808C194.378 13.6831 192.912 12.9758 191.233 12.418C186.686 11.1028 180.503 10.9214 173.785 16.6C172.153 17.9463 169.989 21.335 167.699 22.9438C166.977 23.4548 166.148 23.8541 165.308 24.0944C165.602 23.3952 165.799 22.6589 165.884 21.8903C166.166 19.3284 165.146 16.6852 163.128 14.8101C163.786 14.1858 164.536 13.6026 165.364 13.1214C168.126 11.4117 171.757 10.8758 174.168 12.0637C174.424 12.1834 174.5 12.0973 174.24 11.9832C170.122 10.1023 165.04 10.6822 162.297 12.9902C162.037 13.2044 161.798 13.423 161.573 13.645C160.605 13.0657 159.494 12.6336 158.255 12.4046C153.406 11.5074 147.788 14.2335 147.964 18.6688C148.012 19.9059 148.559 21.1192 149.497 22.0814C148.163 20.5015 147.92 18.3486 148.864 16.5876C149.863 14.7278 152.063 13.5034 154.447 13.1586C156.879 12.8067 159.094 13.374 160.812 14.494C158.081 17.9308 159.011 21.9032 160.598 23.3879C161.268 24.0635 162.174 24.5047 163.185 24.6594C161.669 26.9603 158.872 28.6207 155.64 29.2359C150.421 30.2299 145.082 28.3458 142.147 24.6779C139.417 21.2685 138.759 16.9115 140.339 13.0377C141.853 9.33051 145.303 6.49055 149.525 4.83172C152.436 3.68721 155.563 3.1685 158.66 3.21517ZM241.475 3.2162C244.572 3.16963 247.698 3.68807 250.609 4.8326C254.83 6.49146 258.28 9.33145 259.794 13.0386C261.374 16.9124 260.717 21.2704 257.987 24.6799C255.052 28.3478 249.712 30.2318 244.495 29.2379C241.263 28.6226 238.466 26.9623 236.951 24.6613C237.962 24.5066 238.87 24.0644 239.54 23.3888C241.125 21.9041 242.055 17.9327 239.324 14.4959C241.042 13.3759 243.256 12.8086 245.688 13.1605C248.072 13.5053 250.271 14.7298 251.269 16.5895C252.213 18.3505 251.97 20.5034 250.637 22.0833C251.575 21.1212 252.123 19.9079 252.17 18.6708C252.345 14.2354 246.73 11.5092 241.882 12.4065C240.642 12.6355 239.531 13.0677 238.564 13.6469C238.339 13.4249 238.1 13.2063 237.839 12.9921C235.097 10.6841 230.016 10.1032 225.897 11.9841C225.638 12.0984 225.714 12.1856 225.969 12.0656C228.381 10.8777 232.013 11.4135 234.774 13.1232C235.601 13.6045 236.35 14.1876 237.008 14.812C234.991 16.687 233.97 19.3303 234.253 21.8921C234.338 22.6608 234.536 23.3971 234.829 24.0963C233.99 23.856 233.161 23.4567 232.438 22.9457C230.148 21.3369 227.984 17.9481 226.353 16.6019C219.635 10.9233 213.454 11.1046 208.906 12.4199C207.226 12.9777 205.761 13.685 204.41 14.5826C204.323 13.4907 205.087 12.7714 206.405 12.3166C207.954 11.7753 209.875 11.592 212.142 11.5647C213.601 11.5467 215.045 11.5952 216.615 11.5687C221.663 11.4565 226.029 10.6483 229.967 8.69631C232.171 7.61424 233.969 6.02468 234.418 4.32323C236.676 3.63061 239.067 3.25252 241.475 3.2162ZM130.445 5.85305C131.072 5.85505 131.698 5.90924 132.313 6.01737C133.508 6.22658 134.675 6.65387 135.651 7.32081C136.564 7.94472 137.453 8.76574 137.758 9.79447C137.791 9.90519 137.817 10.0185 137.837 10.1322C137.849 10.1894 137.859 10.2463 137.867 10.3037C137.876 10.3756 137.875 10.3728 137.8 10.3976C137.579 10.4728 137.357 10.5459 137.136 10.6217C136.677 10.7776 136.219 10.933 135.761 11.0896C133.273 11.9414 130.795 12.8171 128.305 13.6635C128.317 13.1235 128.195 12.5941 127.954 12.1008C127.709 11.6005 127.303 11.1595 126.846 10.8077C126.406 10.4707 125.864 10.1786 125.277 10.1518C124.684 10.1236 124.132 10.4239 123.843 10.8882C123.542 11.3707 123.564 11.9523 123.676 12.4799C123.795 13.0409 124.013 13.579 124.203 14.1231C124.105 13.6836 123.981 13.2485 123.903 12.8052C123.828 12.3781 123.784 11.9233 123.898 11.4986C123.995 11.1352 124.24 10.8104 124.615 10.6393C125.011 10.4629 125.457 10.5476 125.831 10.7333C126.349 10.9876 126.777 11.4061 127.087 11.8539C127.336 12.2157 127.481 12.622 127.538 13.0437C127.577 13.3278 127.571 13.6135 127.524 13.8959C127.512 13.9598 127.358 13.9834 127.292 14.0054C127.217 14.0306 127.142 14.057 127.067 14.0818C126.917 14.1325 126.768 14.1815 126.617 14.2324C125.993 14.4404 125.367 14.6475 124.739 14.8501C124.113 15.0523 123.486 15.2496 122.855 15.445C122.542 15.5434 122.226 15.6397 121.912 15.7352C121.862 15.7512 121.811 15.7666 121.76 15.7806C121.743 15.7524 121.726 15.7219 121.708 15.6929C121.675 15.6337 121.641 15.5739 121.608 15.5132C121.544 15.3933 121.483 15.2719 121.425 15.1486C120.943 14.1174 120.719 12.9642 120.909 11.8507C121.265 9.74986 123.039 8.09854 125.027 7.11199C126.668 6.29803 128.562 5.84598 130.445 5.85305ZM269.554 5.85412C271.437 5.84612 273.331 6.29914 274.973 7.11315C276.959 8.0997 278.733 9.75102 279.09 11.8519C279.278 12.9653 279.055 14.1186 278.573 15.1498C278.516 15.2731 278.454 15.3944 278.389 15.5143C278.358 15.5751 278.324 15.6349 278.29 15.694C278.272 15.723 278.257 15.7536 278.237 15.7818C278.188 15.7678 278.137 15.7524 278.088 15.7364C277.773 15.6409 277.457 15.5457 277.145 15.4472C276.513 15.2517 275.887 15.0534 275.26 14.8512C274.633 14.6486 274.006 14.4416 273.381 14.2336C273.232 14.1828 273.082 14.1339 272.931 14.0829C272.856 14.0579 272.781 14.0317 272.707 14.0065C272.64 13.9848 272.485 13.9612 272.475 13.897C272.427 13.6146 272.42 13.329 272.459 13.0449C272.517 12.6232 272.662 12.2169 272.913 11.8551C273.221 11.4073 273.65 10.9887 274.168 10.7344C274.542 10.5488 274.987 10.464 275.383 10.6405C275.759 10.8116 276.003 11.1364 276.101 11.4998C276.216 11.9245 276.173 12.3793 276.097 12.8064C276.019 13.2496 275.895 13.6848 275.798 14.1243C275.987 13.5802 276.206 13.0421 276.325 12.4811C276.437 11.9535 276.458 11.3719 276.158 10.8894C275.868 10.4251 275.315 10.1248 274.723 10.153C274.135 10.1798 273.595 10.4719 273.156 10.8088C272.698 11.1607 272.292 11.6017 272.045 12.102C271.806 12.5953 271.684 13.1247 271.696 13.6647C269.205 12.8183 266.727 11.9426 264.238 11.0908C263.781 10.9341 263.322 10.7789 262.865 10.623C262.644 10.5474 262.422 10.4741 262.201 10.3988C262.126 10.3739 262.126 10.3768 262.134 10.3049C262.142 10.2473 262.15 10.1896 262.163 10.1324C262.183 10.0187 262.21 9.90641 262.242 9.79569C262.547 8.76696 263.435 7.94593 264.347 7.322C265.324 6.65508 266.492 6.22675 267.687 6.01753C268.302 5.9094 268.927 5.85652 269.554 5.85412ZM139.221 11.4098C138.488 12.7276 137.987 14.1413 137.758 15.6145C137.671 16.1673 137.624 16.7263 137.617 17.2877C135.997 17.8968 134.335 18.4178 132.632 18.7792C130.155 19.308 127.375 19.5406 124.991 18.5706C125.908 17.8813 126.756 17.0984 127.391 16.1785C127.477 16.0561 127.558 15.9292 127.634 15.8015C127.671 15.7415 127.705 15.6815 127.737 15.6208C127.753 15.5902 127.772 15.5592 127.787 15.5299C127.825 15.5159 127.862 15.5027 127.9 15.4907C128.212 15.3827 128.524 15.2738 128.834 15.1643C129.456 14.9464 130.077 14.7251 130.697 14.5023C131.932 14.0573 133.163 13.6096 134.395 13.1585C134.279 13.6315 134.195 14.1137 134.212 14.5983C134.231 15.0792 134.357 15.7335 134.987 15.8294C135.574 15.92 136.109 15.5166 136.499 15.1726C137.338 14.4328 137.944 13.4848 138.323 12.4851C138.425 12.2196 138.507 11.9482 138.57 11.6733C138.586 11.6095 138.735 11.5835 138.802 11.5607C138.876 11.5343 138.949 11.5076 139.023 11.4812C139.09 11.4572 139.155 11.4334 139.221 11.4098ZM260.944 11.4698C260.954 11.4738 260.965 11.4777 260.977 11.4817C261.049 11.5081 261.124 11.5349 261.199 11.5613C261.264 11.5841 261.415 11.6103 261.429 11.6738C261.492 11.9488 261.575 12.2202 261.674 12.4857C262.054 13.4854 262.66 14.4335 263.5 15.1731C263.889 15.5172 264.425 15.9206 265.013 15.83C265.642 15.7341 265.768 15.0808 265.788 14.5999C265.803 14.1153 265.72 13.6331 265.604 13.1601C266.837 13.6112 268.067 14.0579 269.302 14.5028C269.921 14.7257 270.544 14.947 271.164 15.1649C271.476 15.2744 271.788 15.3844 272.099 15.4923C272.139 15.5043 272.173 15.5175 272.211 15.5315C272.227 15.5608 272.245 15.5908 272.26 15.6214C272.293 15.6822 272.328 15.7421 272.365 15.8021C272.439 15.9298 272.521 16.0568 272.606 16.1791C273.241 17.099 274.09 17.8819 275.008 18.5711C272.624 19.5412 269.844 19.3086 267.367 18.7798C265.713 18.4283 264.095 17.9271 262.515 17.34C262.513 16.7616 262.463 16.1845 262.375 15.6151C262.149 14.1639 261.658 12.7709 260.944 11.4698ZM1.66955 11.9273C0.747884 11.9273 0 12.6768 0 13.6005C0 14.5254 0.747884 15.2748 1.66955 15.2748C2.59287 15.2748 3.34117 14.5254 3.34117 13.6005C3.34117 12.6768 2.59287 11.9273 1.66955 11.9273ZM398.329 11.9273C397.407 11.9273 396.658 12.6768 396.658 13.6005C396.658 14.5254 397.407 15.2748 398.329 15.2748C399.252 15.2748 400 14.5254 400 13.6005C400 12.6768 399.252 11.9273 398.329 11.9273ZM137.771 11.9312C137.554 12.8632 137.118 13.7644 136.486 14.5268C136.195 14.8799 135.846 15.2874 135.386 15.4657C135.171 15.5502 134.911 15.562 134.739 15.3965C134.58 15.2436 134.516 15.0203 134.473 14.8181C134.384 14.4137 134.383 13.9961 134.421 13.5859C134.431 13.4804 134.443 13.3772 134.457 13.2709C134.463 13.2241 134.469 13.1771 134.476 13.1304C134.525 13.1124 134.575 13.0936 134.625 13.0756C134.837 12.9991 135.047 12.9217 135.26 12.8432C136.095 12.5389 136.932 12.2331 137.771 11.9312ZM262.229 11.9323C263.068 12.2341 263.905 12.54 264.741 12.8443C264.951 12.9228 265.163 13.0002 265.374 13.0767C265.422 13.0947 265.472 13.1135 265.523 13.1314C265.529 13.1782 265.535 13.2252 265.541 13.272C265.555 13.3783 265.57 13.4815 265.58 13.587C265.617 13.9972 265.616 14.4148 265.527 14.8192C265.486 15.0214 265.419 15.2447 265.261 15.3976C265.088 15.5629 264.83 15.5511 264.613 15.4667C264.155 15.2886 263.805 14.881 263.513 14.5279C262.883 13.7654 262.444 12.8642 262.229 11.9323ZM217.855 15.6464C218.929 15.8788 219.909 16.2121 220.601 16.5925C221.169 16.9155 221.569 17.2466 221.785 17.6109C222.27 18.4106 221.362 19.4454 219.327 20.0433C218.297 20.3485 216.968 20.5352 215.483 20.507C214.964 19.4027 215.134 18.2749 215.782 17.1296H200.066H184.351C185 18.2753 185.167 19.4041 184.648 20.5101C183.165 20.5373 181.838 20.348 180.81 20.0433C178.774 19.4454 177.868 18.4106 178.354 17.6109C178.568 17.2466 178.97 16.9155 179.537 16.5925C180.229 16.2126 181.206 15.8803 182.277 15.6475C182.276 15.6635 182.275 15.678 182.275 15.694C182.275 16.1886 182.644 16.5905 183.102 16.5905H199.904H200.045H200.066H200.087H200.229H217.031C217.488 16.5906 217.859 16.1886 217.859 15.694C217.859 15.678 217.855 15.6624 217.855 15.6464ZM162.271 15.7022C163.616 17.0964 164.41 18.9058 164.392 20.7941C164.381 22.0796 164.018 23.2742 163.386 24.341C161.344 24.2384 159.753 22.8123 160.298 19.2077C160.471 18.2741 161.177 16.9616 162.271 15.7022ZM237.866 15.7022C238.961 16.9616 239.666 18.2741 239.84 19.2077C240.386 22.8123 238.794 24.2384 236.753 24.341C236.12 23.2742 235.758 22.0796 235.746 20.7941C235.728 18.9058 236.522 17.0964 237.866 15.7022ZM126.441 15.9904C125.755 16.7958 124.898 17.4776 123.988 18.0685C123.566 17.8113 123.178 17.5091 122.837 17.1688C124.046 16.793 125.245 16.396 126.441 15.9904ZM273.559 15.9904C274.754 16.396 275.953 16.793 277.164 17.1688C276.822 17.5091 276.435 17.8113 276.012 18.0685C275.102 17.4776 274.244 16.7958 273.559 15.9904ZM121.199 17.6667C121.215 17.6846 121.23 17.7034 121.247 17.7234C121.326 17.8163 121.407 17.9061 121.492 17.995C121.806 18.327 122.158 18.6307 122.535 18.904C121.534 19.403 120.464 19.7862 119.362 20.0566C118.215 20.3394 117.031 20.5044 115.85 20.6185C114.532 20.7478 113.202 20.7986 111.876 20.7766C110.566 20.755 109.25 20.6699 107.957 20.4729C108.418 20.4178 108.879 20.358 109.339 20.2952C111.874 19.9488 114.386 19.4556 116.861 18.8503C116.347 18.9786 115.797 19.1174 117.052 18.8069C117.463 18.704 117.434 18.7106 117.248 18.7554C118.208 18.5126 119.162 18.254 120.113 17.9828C120.375 17.9074 120.638 17.8315 120.9 17.7545C120.963 17.7365 121.024 17.7188 121.087 17.6988L121.199 17.6667ZM278.803 17.6677L278.913 17.6997C278.975 17.7197 279.038 17.7374 279.101 17.7554C279.36 17.8324 279.624 17.9085 279.885 17.9837C280.837 18.2549 281.793 18.5136 282.753 18.7563C282.566 18.7117 282.538 18.7049 282.948 18.8078C284.204 19.1183 283.654 18.9793 283.14 18.8512C285.613 19.4565 288.125 19.9497 290.661 20.2962C291.119 20.3591 291.582 20.4189 292.042 20.4739C290.749 20.6705 289.435 20.7561 288.124 20.7775C286.797 20.7995 285.468 20.7489 284.15 20.6194C282.969 20.5053 281.783 20.3404 280.636 20.0575C279.535 19.7871 278.467 19.404 277.465 18.9049C277.842 18.6316 278.192 18.328 278.508 17.996C278.592 17.907 278.673 17.8175 278.751 17.7243C278.769 17.7043 278.785 17.6857 278.803 17.6677ZM187.318 18.15C187.991 18.15 188.537 18.5665 188.537 19.0796C188.537 19.5952 187.991 20.0123 187.318 20.0123C186.643 20.0123 186.097 19.5952 186.097 19.0796C186.097 18.5665 186.643 18.15 187.318 18.15ZM192.414 18.15C193.087 18.15 193.633 18.5665 193.633 19.0796C193.633 19.5952 193.087 20.0123 192.414 20.0123C191.741 20.0123 191.195 19.5952 191.195 19.0796C191.195 18.5665 191.741 18.15 192.414 18.15ZM197.511 18.15C198.184 18.15 198.729 18.5665 198.729 19.0796C198.729 19.5952 198.184 20.0123 197.511 20.0123C196.838 20.0123 196.293 19.5952 196.293 19.0796C196.293 18.5665 196.838 18.15 197.511 18.15ZM202.624 18.15C203.297 18.15 203.842 18.5665 203.842 19.0796C203.842 19.5952 203.297 20.0123 202.624 20.0123C201.951 20.0123 201.405 19.5952 201.405 19.0796C201.405 18.5665 201.951 18.15 202.624 18.15ZM207.72 18.15C208.393 18.15 208.939 18.5665 208.939 19.0796C208.939 19.5952 208.393 20.0123 207.72 20.0123C207.047 20.0123 206.502 19.5952 206.502 19.0796C206.502 18.5665 207.047 18.15 207.72 18.15ZM212.816 18.15C213.492 18.15 214.037 18.5665 214.037 19.0796C214.037 19.5952 213.492 20.0123 212.816 20.0123C212.144 20.0123 211.597 19.5952 211.597 19.0796C211.597 18.5665 212.144 18.15 212.816 18.15Z" fill="#FFF0F0"/>
</svg>
